<?xml version="1.0" standalone="no"?>
<!DOCTYPE svg PUBLIC "-//W3C//DTD SVG 1.1//EN" "http://www.w3.org/Graphics/SVG/1.1/DTD/svg11.dtd" >
<svg xmlns="http://www.w3.org/2000/svg" xmlns:xlink="http://www.w3.org/1999/xlink" version="1.1">
<metadata>
Created by FontForge 20141024 at Sun Jan 31 15:47:45 2016
 By Jimmy Warting
FREE FOR PERSONAL USE
</metadata>
<defs>
<font id="JaimebienleDimanche!" horiz-adv-x="252" >
  <font-face 
    font-family="J'aime bien le Dimanche !"
    font-weight="400"
    font-stretch="normal"
    units-per-em="1000"
    panose-1="2 0 0 0 0 0 0 0 0 0"
    ascent="750"
    descent="-250"
    x-height="265"
    cap-height="483"
    bbox="-283 -279 730 575"
    underline-thickness="50"
    underline-position="-50"
    unicode-range="U+0020-2019"
  />
<missing-glyph horiz-adv-x="150" 
 />
    <glyph glyph-name=".notdef" horiz-adv-x="150" 
 />
    <glyph glyph-name="zero" unicode="0" horiz-adv-x="328" 
d="M243 490q20 -16 31 -38t16 -45t6 -43.5t1 -32.5q0 -60 -16.5 -119t-43.5 -115q-9 -15 -20 -32.5t-26 -32.5t-33.5 -24.5t-41.5 -9.5q-29 0 -45.5 14t-25.5 33.5t-11.5 41t-2.5 37.5q0 26 3.5 52t9.5 49q-3 0 -3 14q0 12 3.5 32t12.5 47t25 58.5t41 66.5q7 7 15 16
t18 17.5t23 14.5t29 6q17 0 35 -7zM196 100q29 48 44 109.5t15 117.5q0 45 -10 79t-31 49q-29 -10 -50.5 -33.5t-35.5 -49t-22 -46.5t-11 -26q-17 -47 -26.5 -83t-9.5 -82q0 -18 2 -36t8 -33t16 -24.5t25 -9.5q23 0 47.5 18.5t38.5 49.5zM185 321q1 -2 1 -10q0 -14 -4 -40.5
t-8.5 -53t-9 -47.5t-5.5 -25q-2 -5 -3.5 -7t-12.5 -2q-5 0 -10.5 2.5t-5.5 14.5q0 16 8 44.5t17 56.5t17 50t8 25q8 0 8 -8z" />
    <glyph glyph-name="one" unicode="1" horiz-adv-x="229" 
d="M195 501q6 -2 6 -22q0 -24 -8 -69.5t-20 -99t-26.5 -109t-26.5 -101t-20.5 -74t-9.5 -28.5q-8 2 -8 14q0 5 1 8q1 9 7 46.5t14.5 88t18.5 107.5t18 105q-24 -22 -49 -29t-43 -7q-26 0 -26 5q0 9 7 10.5t19.5 4t29 11t36.5 31.5q22 26 30 46t11 34t7 21.5t19 7.5
q8 0 13 -1z" />
    <glyph glyph-name="two" unicode="2" horiz-adv-x="350" 
d="M217 503q13 0 31 -3t34 -12t27 -26t11 -45q0 -17 -7 -36q-40 -62 -83.5 -114.5t-82.5 -93t-68.5 -68t-40.5 -39.5q4 0 8 -4h-1q3 -2 9.5 -8t16.5 -12.5t24 -11.5t31 -5q27 0 47.5 8.5t34 19.5t20.5 23t7 18t4 9.5t21 3.5q5 0 11 -2t6 -11q0 -14 -8.5 -32t-25 -34
t-42.5 -27t-60 -11q-28 0 -49 10.5t-35 23.5t-21 25t-7 14q0 4 4.5 12t12.5 16h-1q3 9 28 36.5t59.5 67t73 88.5t68.5 101q5 8 6.5 16.5t1.5 14.5q0 23 -18.5 34.5t-41.5 11.5q-25 0 -42 -10.5t-27 -25.5t-14 -31t-4 -26q0 -17 5 -25.5t10.5 -14.5t10.5 -12t5 -16
q0 -4 -4 -10.5t-14 -6.5l-8.5 4.5t-19 15t-19.5 28t-9 44.5q0 18 7.5 40t23.5 41.5t39 33t55 13.5z" />
    <glyph glyph-name="three" unicode="3" horiz-adv-x="327" 
d="M242 316q35 -10 44.5 -28.5t9.5 -40.5q0 -33 -7 -77t-25.5 -84t-50.5 -67.5t-82 -27.5q-26 0 -45 12t-31.5 29.5t-18.5 36t-6 31.5q0 46 13.5 65.5t23.5 19.5q3 0 11.5 -2.5t8.5 -8.5q0 -8 -7 -26.5t-7 -44.5q0 -31 18 -49.5t49 -18.5q28 0 51 19.5t39.5 50t26 67
t9.5 71.5q0 20 -7.5 34.5t-20.5 14.5q-11 0 -22 -10q-42 -28 -64.5 -50.5t-24.5 -22.5q-2 2 -2 4q0 8 15 25h-1q1 2 3 4q4 4 6 7q3 4 19 20.5t34.5 40.5t33.5 52.5t15 54.5q0 23 -16 33.5t-39 10.5q-21 0 -38 -8t-29 -20.5t-18 -29t-6 -34.5q0 -17 5 -26.5t11 -15.5
t11 -11.5t5 -14.5q0 -12 -18 -18l-7 2t-17 10.5t-20 26.5t-15 50q0 21 9.5 44t27 42t41.5 31.5t53 12.5q46 0 69.5 -24.5t23.5 -55.5q0 -35 -17.5 -63t-34.5 -47q3 1 5.5 2t5.5 2z" />
    <glyph glyph-name="four" unicode="4" horiz-adv-x="317" 
d="M242 301q4 2 9 7.5t13 5.5q5 0 11.5 -3.5t14.5 -13.5q0 -17 -10 -27.5t-22 -17.5q-15 -31 -25 -66.5t-17 -66.5t-11 -53.5t-7 -27.5q-2 -12 -6 -21.5t-15 -9.5q-6 0 -12.5 1.5t-6.5 20.5q0 13 2.5 34.5t8.5 49t16 59.5t25 66q-23 -4 -44.5 -5t-40.5 -1q-38 0 -62.5 1
t-29.5 2q0 -1 -1 -1q-6 4 -6 10q0 2 2 6q2 5 11 23.5t20.5 44t25 54.5t24.5 54.5t19 44.5t9 24q2 5 4 8t8 3q1 0 5.5 -0.5t9.5 -2t9 -5t4 -10.5q0 -18 -16 -52t-38 -71.5t-44.5 -70.5t-35.5 -49q6 2 11 2q5 1 22 1.5t40.5 3t51 7t54.5 13.5q6 6 10.5 13.5t9.5 15.5z" />
    <glyph glyph-name="five" unicode="5" horiz-adv-x="340" 
d="M300 503q5 0 7.5 -3t3.5 -26q0 -9 -9.5 -12.5t-24.5 -3.5q-13 0 -28 2t-30 5t-28.5 6.5t-22.5 6.5q-2 -6 -5.5 -25.5t-8.5 -46t-11 -56t-11 -56.5q17 12 40 12q28 0 47 -15t31 -38t17.5 -49.5t5.5 -49.5q0 -78 -36 -115t-93 -37q-35 0 -57.5 13t-35 31t-17.5 36.5
t-5 29.5q0 32 6.5 50.5t20.5 18.5q3 0 11.5 -2t8.5 -11q0 -7 -2 -18.5t-2 -25.5q0 -15 4 -29.5t13 -25.5t24 -17.5t38 -6.5q39 0 64 28t25 90q0 22 -4.5 43t-13 38.5t-21.5 28.5t-31 13q-16 -3 -26.5 -9t-17.5 -14q-4 -25 -5.5 -38.5t-4 -20t-7.5 -7.5t-14 -1q-6 0 -12 4
t-6 21q0 22 9 60.5t22 78t26 74.5t21 50q0 6 17 10t40.5 6t48 2.5t39.5 0.5z" />
    <glyph glyph-name="six" unicode="6" horiz-adv-x="279" 
d="M149 331q29 -3 48.5 -18t31 -36.5t16.5 -46.5t5 -49q0 -17 -4 -48t-16 -61t-35 -52t-62 -22q-32 0 -52 15.5t-31.5 38t-16 47.5t-4.5 45q0 32 5.5 58.5t17.5 61.5q16 52 37.5 94t40.5 72.5t32 48t13 19.5v1q2 -1 2 -6q0 -10 -14 -38v1q-5 -13 -26.5 -52.5t-43.5 -99.5
q11 8 23.5 17t32.5 10zM120 35q2 0 3.5 -0.5t3.5 -0.5q21 0 36 12.5t25 32.5t14.5 45t4.5 49q0 57 -19.5 85t-38.5 28q-12 0 -23 -7.5t-20 -16.5t-15 -17t-7 -9q-17 -27 -20.5 -41.5t-3.5 -30.5q0 -42 12 -77t48 -52z" />
    <glyph glyph-name="seven" unicode="7" horiz-adv-x="289" 
d="M224 492q4 -4 9.5 -4t10.5 -2.5t10 -10.5t9 -26l-36 -101q-24 -66 -50 -128.5t-49 -110.5t-39 -77.5t-20 -29.5q-2 0 -3 2t-1 4q0 5 8 23q6 10 22.5 52.5t38 103.5t45 132t43.5 138q-3 -6 -12 -6q-11 0 -26.5 5.5t-29.5 5.5q-26 0 -42 -2t-24.5 -5t-11.5 -7.5t-3 -9.5
q0 -8 1.5 -14.5t1.5 -13.5q0 -3 -4 -13t-17 -10q-8 5 -13 12q-5 6 -8.5 15t-3.5 21q0 35 26 52.5t76 17.5q43 0 92 -13z" />
    <glyph glyph-name="eight" unicode="8" horiz-adv-x="314" 
d="M209 504q21 0 35.5 -10.5t22.5 -27t10 -36.5t0 -39q-2 -15 -10.5 -41t-34.5 -52q23 -27 33.5 -56.5t10.5 -58.5q0 -32 -9.5 -64t-28 -58.5t-45.5 -43t-61 -16.5q-30 0 -50 14.5t-31 37t-14.5 50.5t-1.5 55q1 9 4.5 29t14 44t29 47t48.5 37q-8 9 -13 29t-5 36q0 20 6.5 42
t18.5 40t30 30t41 12zM201 71q17 20 25.5 47t8.5 53q0 21 -4.5 41t-13 35t-20 24.5t-25.5 9.5q-23 -4 -39.5 -18t-27.5 -29.5t-17 -29t-7 -17.5q-8 -23 -11.5 -37t-3.5 -33q0 -15 3 -30t10.5 -27t19.5 -19t29 -7q20 0 40.5 10t32.5 27zM186 327q11 1 20 9t15.5 17.5t10 18
t3.5 10.5q5 13 8 23.5t3 20.5q0 20 -10.5 32.5t-25.5 12.5q-11 0 -21 -7t-17.5 -18.5t-12 -25.5t-4.5 -29q0 -27 9.5 -45.5t21.5 -18.5z" />
    <glyph glyph-name="nine" unicode="9" horiz-adv-x="280" 
d="M152 503q30 -2 49 -16.5t30.5 -36.5t15.5 -47t4 -47q0 -28 -4.5 -60.5t-18.5 -58.5q-20 -55 -42 -98.5t-40.5 -74t-30.5 -46.5t-11 -16q-2 0 -2 5q0 10 5 19t15.5 27t26.5 51t37 92q-11 -8 -20.5 -17t-35.5 -10q-29 4 -48 19t-31 36t-17 46t-5 49q0 21 4 52t17 60.5
t37 50.5t65 21zM195 265q12 18 18 35.5t6 43.5q0 17 -3.5 38t-11.5 39.5t-20.5 31t-31.5 12.5q-21 0 -36 -12.5t-25 -32t-14.5 -44t-4.5 -48.5q0 -57 19.5 -85.5t38.5 -28.5q12 0 23 7.5t20 16.5t14.5 17t7.5 10z" />
    <glyph glyph-name="B" unicode="B" horiz-adv-x="463" 
d="M156 465q-30 -5 -53 -15t-39 -19.5t-24 -16.5l-8 -7q-1 0 -1 3q0 5 5.5 13.5t16.5 16.5q5 5 20.5 15t40 19.5t56.5 16.5t71 7q24 0 57 -6t62 -22t49.5 -44t20.5 -73q0 -38 -19.5 -66t-47.5 -47q29 -20 50.5 -50.5t21.5 -74.5q0 -8 -1 -15l-2 -14q23 -14 35.5 -22.5
t12.5 -7.5q-2 -2 -5 -2q-13 0 -46 18q-9 -30 -29 -52.5t-46.5 -38.5t-56.5 -24t-59 -8q-4 0 -7.5 0.5t-7.5 0.5q-3 0 -5.5 -0.5t-5.5 -0.5q-29 0 -58 10.5t-53 28.5t-39 43t-15 54q0 27 12.5 43.5t32.5 27.5q2 7 2.5 13.5t1.5 13.5q-14 3 -25 12q0 -1 -1 -1q-7 0 -7 22
q0 15 9 27t35 26q9 66 13.5 103t8 54.5t9 21.5t17.5 4q5 0 10 -4.5t5 -24.5q0 -23 -5.5 -60.5t-13.5 -81.5q11 2 22 3t23 1q28 0 58 -4.5t64 -17.5q30 14 51.5 37t21.5 58q0 33 -17 55t-43 34.5t-56.5 18t-57.5 5.5q-36 0 -61 -6zM81 67q2 11 3.5 24.5t3.5 28.5
q-11 -11 -11 -26t4 -27zM142 237q-1 -4 -1.5 -7t-1.5 -7q20 1 42.5 4t60.5 10q-14 2 -26.5 3t-23.5 1q-17 0 -29.5 -1t-20.5 -3zM379 61q8 17 11 30q-15 7 -38 16t-51 17.5t-60.5 14.5t-66.5 6q-14 0 -28 -1.5t-26 -5.5q-7 -29 -13.5 -54.5t-11.5 -43.5q22 -29 56.5 -41
t75.5 -12q47 0 90 19t62 55zM392 108q0 39 -20 65t-55 41q-57 -22 -103 -27.5t-73 -5.5q-11 0 -11.5 -2.5t-2.5 -9.5q16 3 35 3q36 0 69 -6.5t62.5 -16t54.5 -21t44 -20.5z" />
    <glyph glyph-name="C" unicode="C" horiz-adv-x="375" 
d="M169 -53q-32 5 -57.5 24.5t-44 48t-28.5 63.5t-10 70q0 64 20.5 124.5t56 106.5t82 74t98.5 28q32 0 53 -7.5t33.5 -17.5t17.5 -21t5 -17q0 -5 -4.5 -12.5t-12.5 -7.5q-3 0 -9 6.5t-16 14t-25 14t-36 6.5q-35 0 -70.5 -17.5t-65.5 -49t-52 -75t-31 -95.5q-10 -29 -10 -62
q0 -35 11 -68t30.5 -58t46 -40t57.5 -15q8 0 17 -1t17 -1q28 0 49.5 8.5t36 18.5t22 18.5t8.5 8.5v-1q0 -1 1 -2q0 -5 -5 -14t-18 -21q-4 -3 -13.5 -9.5t-24.5 -13t-34.5 -11t-42.5 -4.5q-12 0 -25 1.5t-27 5.5z" />
    <glyph glyph-name="D" unicode="D" horiz-adv-x="445" 
d="M225 -14q-29 -2 -63.5 6.5t-64 27t-49 46t-19.5 62.5t23.5 55.5t51.5 26.5q7 48 13.5 97.5t12.5 88.5q-21 -24 -32.5 -47t-17.5 -41.5t-8 -29.5t-4 -11q-5 0 -5 14q0 9 5 32q1 4 4 16.5t10 29.5t19.5 36t33.5 37q2 17 2.5 28t2.5 17.5t8 9t18 2.5q5 0 9.5 -4.5t4.5 -22.5
q34 14 74 14q51 0 87 -21.5t59.5 -55t34 -74t10.5 -77.5q0 -79 -34 -144q20 -19 31 -31.5t11 -13.5q-2 -2 -5 -2q-6 0 -8 1.5t-5.5 5t-10.5 9.5t-21 16q-18 -29 -40 -49t-45.5 -32t-47.5 -17t-45 -5zM179 434q-4 -42 -15.5 -102t-25.5 -118q37 0 71.5 -7.5t65 -19t56 -26.5
t46.5 -30q14 26 21.5 56.5t7.5 62.5q0 37 -9.5 73t-29 64t-49 45t-70.5 17q-19 0 -36 -4t-33 -11zM128 174q-8 -32 -14.5 -58.5t-11.5 -42.5q30 -26 56 -37t63 -11q44 0 80.5 20t65.5 68q-18 10 -42 21.5t-51 20.5t-56 15t-59 6q-8 0 -15.5 -0.5t-15.5 -1.5zM99 165
q-28 -13 -28 -34q0 -10 6 -23t12 -21q2 13 4 33t6 45z" />
    <glyph glyph-name="E" unicode="E" horiz-adv-x="417" 
d="M330 -31q-21 -16 -49 -24t-59 -8q-32 0 -66.5 11t-63 33t-46.5 56t-18 81q0 40 12.5 72t33.5 56t48.5 41t57.5 27l-6 24t-6.5 36t-3.5 40.5t3 37.5t13 28t26 11q18 0 29.5 -7.5t22.5 -12.5q26 -15 48.5 -29t40.5 -28q38 -29 64.5 -39.5t28.5 -10.5q0 -7 -15 -7
q-4 0 -12 2t-21.5 7.5t-33 15.5t-46.5 27q-11 4 -25 12t-28.5 16t-27 14t-21.5 6q-12 0 -12 -13q0 -28 7 -60.5t17 -59.5q24 3 43 3q16 0 32 -2t29 -7t21.5 -14.5t8.5 -25.5q0 -6 -4 -19t-14.5 -26t-27.5 -21t-43 -4q-28 11 -45.5 28t-27.5 39q-24 -6 -47 -21t-40.5 -36.5
t-28 -48t-10.5 -56.5q0 -38 15 -65.5t38.5 -45.5t52 -26.5t56.5 -8.5q41 0 71 13t51 33t35 43t21.5 43t10 34t2.5 16q3 4 4 -1t1 -13.5t-1 -16.5t-1 -11q-1 -6 -5 -21t-14 -35t-28 -41.5t-47 -40.5zM313 280q-5 2 -14.5 3t-21.5 1h-17.5t-19.5 -2q10 -18 17.5 -23.5
t17.5 -7.5q11 -3 19 1t13 10q6 7 10 17q-1 1 -4 1z" />
    <glyph glyph-name="F" unicode="F" horiz-adv-x="278" 
d="M48 308q-1 -1 -3 -1q-4 0 -10.5 7t-8.5 25v-1q2 30 29 51.5t70 36t97.5 23t112 13t113.5 6t102.5 1.5h78.5t41 2q20 0 32 -3t12 -25q0 -11 -38.5 -13.5t-101.5 -2.5t-142.5 -0.5t-161.5 -6.5q0 -15 -3 -45.5t-8 -65.5q6 1 12.5 1h13.5q22 0 45 -2t42.5 -4.5t32 -4.5
t12.5 -3q0 -11 -7 -11q-4 -2 -23 -4.5t-44 -5.5t-50.5 -6t-41.5 -5q-9 -52 -21 -107t-22.5 -100t-18 -73.5t-8.5 -28.5q-9 2 -9 15q0 2 0.5 3t0.5 3q0 8 4 41t10 78t13 96.5t13 96.5t11 78t6 42q0 2 0.5 4.5t0.5 4.5q-33 -3 -66.5 -8t-60.5 -13.5t-45 -21.5t-19 -32
q0 -16 4 -24t4 -10z" />
    <glyph glyph-name="G" unicode="G" horiz-adv-x="447" 
d="M123 0q-21 11 -38.5 29.5t-30 41t-19.5 48.5t-7 52q0 12 2 24.5t5 23.5q8 53 31.5 92.5t55 68.5t67.5 48t70.5 30.5t63 16t45.5 4.5q14 0 28 -2t25 -6.5t18 -11.5t7 -17q0 -4 -3 -9.5t-11 -5.5q-3 0 -17.5 5t-43.5 5q-22 0 -53.5 -6.5t-65.5 -20t-67 -35.5t-59.5 -53
t-43 -72t-16.5 -93q0 -43 18.5 -80t58.5 -55q21 20 45.5 32t49.5 14q20 0 36.5 -2.5t30.5 -6.5q11 7 18 13.5t13 11.5q5 29 8.5 54t6.5 53t6 63t8 83q0 7 3.5 17t10.5 19t16.5 15t20.5 6q15 0 25 -9t16 -20.5t8.5 -23t2.5 -16.5q0 -54 -22.5 -113.5t-59.5 -104.5
q-3 -19 -5 -30t-3.5 -18.5t-3 -14t-3.5 -15.5q19 -13 28 -22.5t11 -9.5q-1 -1 -4 -1q-9 0 -38 17q-7 -31 -22.5 -72.5t-40.5 -79t-60.5 -63.5t-82.5 -26q-42 0 -63 26.5t-21 71.5q0 37 12.5 70.5t32.5 59.5zM407 341q-6 -48 -9.5 -95.5t-7.5 -98.5q6 10 13.5 27.5t13.5 39
t10.5 46t4.5 50.5q0 17 -3 31.5t-12 14.5q-6 0 -10 -15zM333 62q-6 -6 -10 -9q2 -1 4 -1.5t4 -1.5q1 3 1 6t1 6zM198 32q-15 -8 -26 -18q5 -1 10.5 -1.5t10.5 -0.5q24 0 49 11t43 22q-6 1 -11.5 1.5t-11.5 0.5q-15 0 -31 -3.5t-33 -11.5zM150 -10q-17 -24 -28.5 -54
t-11.5 -60q0 -27 10.5 -47.5t33.5 -20.5q41 0 71 24t50.5 59t33.5 73.5t19 68.5q-7 4 -19 7q-8 -7 -21 -16.5t-30 -17.5t-37.5 -14t-42.5 -6q-16 0 -28 4z" />
    <glyph glyph-name="H" unicode="H" horiz-adv-x="447" 
d="M53 166q-12 0 -19.5 3t-7.5 26q0 6 13 9.5t36 4.5q6 41 11.5 82t10 75.5t8 59l4.5 31.5q2 11 4 18.5t18 7.5q8 0 13.5 -3t5.5 -26q0 -18 -3.5 -45t-8.5 -59.5t-12.5 -68.5t-14.5 -71q27 0 58.5 -1.5t64.5 -3.5t66 -5t62 -6q8 58 13 90.5t9.5 48t10.5 18.5t15 3
q5 0 10.5 -3t5.5 -17q0 -20 -6.5 -58.5t-15.5 -85.5q31 -4 49.5 -6.5t18.5 -3.5q0 -4 -2 -6t-9.5 -3.5t-22 -2t-39.5 -0.5q-10 -47 -21 -94t-20 -85t-15.5 -62t-7.5 -24q-9 0 -9 16q0 -1 2.5 21t7 58t10.5 80.5t12 88.5h-65t-69.5 -0.5t-66.5 -0.5h-56q-8 -33 -15 -62.5
t-12.5 -51.5t-9 -35t-4.5 -13q-8 2 -8 17l1 10.5t3.5 30t5.5 46.5t7 58h-16v0z" />
    <glyph glyph-name="I" unicode="I" horiz-adv-x="118" 
d="M112 365q-1 0 -3 7.5t-4 19t-3.5 25t-1.5 26.5q0 17 3.5 28.5t13.5 11.5q21 0 26 -5.5t5 -4.5q0 -9 -3.5 -27t-8.5 -36t-10.5 -32t-9.5 -14q-1 0 -2 0.5t-2 0.5zM32 -78q-8 1 -8 19v-1q0 7 4.5 37t11 70.5t13.5 86.5t13.5 87t11.5 70.5t6 37.5q2 11 4.5 17t21.5 6
q5 0 9.5 -4.5t4.5 -21.5q0 -23 -6.5 -61.5t-16.5 -83.5t-21.5 -91.5t-22 -83.5t-17.5 -60.5t-8 -23.5z" />
    <glyph glyph-name="J" unicode="J" horiz-adv-x="371" 
d="M140 -219q-15 -9 -35 -9q-42 0 -63 26.5t-21 71.5q0 39 14 74t36.5 62t51 43.5t58.5 18.5q29 0 51.5 -5t41.5 -13q2 8 2.5 15t1.5 14q11 88 17.5 145t12 91t12.5 47.5t20 13.5q3 0 7.5 -0.5t4.5 -11.5q0 -9 -2 -30t-5 -49.5t-6.5 -62.5t-6.5 -68q-4 -26 -7.5 -58
t-10.5 -67q19 -13 28 -22.5t11 -9.5q-1 -1 -4 -1q-9 0 -38 17q-8 -35 -20 -69.5t-32 -65t-49 -56t-70 -41.5zM58 -87q-5 -20 -5 -37q0 -27 10.5 -47.5t33.5 -20.5q9 0 18 4q37 11 63.5 34.5t45 53.5t30 65t17.5 68q-14 5 -30 9.5t-36 4.5q-24 0 -47.5 -9t-43 -26t-34.5 -42
t-22 -57zM338 396q-1 0 -3 7.5t-4 19t-3.5 25t-1.5 26.5q0 17 3.5 28.5t13.5 11.5q22 0 26.5 -5.5t4.5 -4.5t-3 -14t-6.5 -34t-8 -36.5t-7.5 -20.5h1q-2 -4 -8 -4q-1 0 -2 0.5t-2 0.5z" />
    <glyph glyph-name="K" unicode="K" horiz-adv-x="348" 
d="M48 72q-13 7 -18 17.5t-5 21.5q0 17 8.5 29.5t20.5 12.5q7 0 15 -6q6 45 12.5 93.5t12 91t10 73t5.5 38.5q2 12 5 18.5t22 6.5q5 0 9.5 -4.5t4.5 -24.5q0 -22 -5 -57t-12.5 -77t-17 -87t-18.5 -85q70 70 119.5 120t81.5 81.5t50 46t25 14.5q1 0 10.5 -4t9.5 -13
q0 -5 -25 -32.5t-65.5 -68t-90.5 -88t-101 -91.5q20 -23 49.5 -52t67.5 -52q22 -15 46 -25.5t46 -16.5t41 -8.5t32 -2.5q18 0 22.5 2t11.5 2q4 0 13 -5.5t9 -23.5q0 -7 -17 -12t-45 -5q-37 0 -84.5 13t-89.5 48q-41 29 -70.5 62.5t-48.5 62.5q-2 -2 -4.5 -2.5t-5.5 -2.5
q-10 -40 -16.5 -65t-7.5 -25q-8 1 -8 21v-1q0 5 2 22t5 41q-3 -1 -11 -1zM56 129q-4 0 -4 -6q0 -5 2.5 -13t3.5 -10q6 3 6 9t1 12q-6 8 -9 8z" />
    <glyph glyph-name="L" unicode="L" horiz-adv-x="211" 
d="M114 -62q-8 -4 -19 -4q-12 0 -25 5.5t-23 14.5t-16.5 22t-6.5 28q0 29 5 59t10 59q10 55 20 108.5t18 97.5t13 74.5t6 39.5q1 19 5.5 29.5t27.5 11.5q8 -1 8 -30q0 -22 -4.5 -57.5t-13 -79t-19.5 -93t-23 -99.5q-7 -32 -14.5 -65t-7.5 -62q2 -20 15 -28t30 -8q20 0 38 8
q23 9 40 20t29 20.5t18.5 15.5t8.5 6q1 -1 1 -4q0 -11 -14 -26q-4 -3 -12 -10.5t-21 -17t-31 -19t-43 -16.5z" />
    <glyph glyph-name="M" unicode="M" horiz-adv-x="728" 
d="M35 98q-9 0 -9 37q1 6 1 20t1.5 33.5t5.5 45t12 54.5q6 21 16.5 54t28 64.5t43 54.5t61.5 23q24 0 40.5 -13.5t27 -33t16.5 -41t9 -37.5q5 16 14.5 37.5t24.5 40.5t35.5 32.5t47.5 13.5t44.5 -15t28 -36t14.5 -43t4 -35q5 16 15 38.5t25 42.5t36 34t49 14q26 0 43 -14.5
t27.5 -35t15 -42t5.5 -35.5q1 -11 1 -20.5v-19.5q0 -30 -2 -57t-6 -51q-12 -80 -20 -125t-14.5 -67t-14.5 -27t-20 -5q-3 0 -6 2t-3 10q0 17 7.5 56.5t16.5 94.5q6 38 13 83.5t7 94.5q0 19 -2 40.5t-8 39t-16.5 29t-26.5 11.5q-27 0 -47 -22.5t-35 -53t-25 -61.5t-16 -47
q-7 -42 -13 -79t-10.5 -66.5t-8 -49.5t-5.5 -27q-7 -27 -12.5 -41t-25.5 -14q-3 0 -6 2t-3 10q0 17 7.5 56.5t16.5 94.5q6 39 13 85.5t7 96.5q0 19 -2.5 39.5t-8.5 37.5t-16 28t-25 11q-26 0 -45.5 -21t-34 -49.5t-24.5 -58t-16 -47.5q-15 -96 -25 -152t-17.5 -85.5
t-14 -37.5t-13.5 -8q-4 0 -9.5 1t-5.5 12q0 17 7 51.5t15 82.5q6 37 14.5 86t8.5 100q0 17 -2 39.5t-8 42.5t-16 34t-26 14q-12 0 -23.5 -6.5t-22.5 -16t-20.5 -21.5t-15.5 -24q-30 -56 -45.5 -107t-22.5 -90.5t-8.5 -63t-2.5 -22.5z" />
    <glyph glyph-name="N" unicode="N" horiz-adv-x="355" 
d="M239 483q32 0 52 -15.5t31.5 -38.5t15.5 -51t4 -52q0 -30 -6 -73t-14.5 -85.5t-16.5 -78.5t-12 -53q-5 -22 -12 -36t-21 -14q-5 0 -10.5 0.5t-3.5 10.5q4 28 13 67.5t18 84.5t16 91t7 86q0 17 -3 38.5t-10 40t-19 31t-31 12.5q-24 0 -44 -13t-35.5 -32t-27.5 -40.5
t-21 -39.5q-9 -53 -21.5 -112t-24.5 -109t-20.5 -82.5t-9.5 -32.5q-9 2 -9 15q0 2 0.5 3t0.5 3v-1q1 9 5 42t10 78t13 96.5t13 96.5t10.5 78t5.5 42q2 12 5 18.5t22 6.5q5 0 9 -4.5t4 -24.5v-13.5t-1 -16.5q6 12 17.5 25.5t27.5 25t34.5 19t38.5 7.5z" />
    <glyph glyph-name="O" unicode="O" horiz-adv-x="485" 
d="M370 434q-13 9 -24 14t-19.5 9.5t-13 11t-4.5 19.5q0 4 12 4q13 0 39.5 -9.5t52.5 -34t45.5 -66.5t19.5 -107q0 -47 -17 -100.5t-51 -99.5t-84 -76t-117 -30q-45 0 -80 18.5t-58.5 48.5t-36 67t-12.5 73q0 39 11.5 74t30.5 61q28 40 58 63t54.5 34.5t39.5 14.5t14 3
q0 -6 -11 -11.5t-32 -16.5h1q-4 -2 -26 -16t-47 -40t-45.5 -64t-20.5 -88q0 -32 10 -65t29.5 -59.5t48.5 -43.5t67 -17q49 0 91 23.5t72.5 59.5t47.5 78.5t17 80.5q0 43 -6.5 75.5t-16.5 55.5t-20.5 37t-18.5 19z" />
    <glyph glyph-name="P" unicode="P" horiz-adv-x="461" 
d="M69 90q-23 29 -34 67.5t-11 78.5q0 39 12.5 81.5t39 78t66.5 58t95 22.5q51 0 90.5 -20t66.5 -53.5t41 -77t14 -89.5q0 -40 -9.5 -75t-25.5 -64t-37 -51t-44 -35q31 2 56.5 8.5t44 13t29 12t12.5 5.5q1 0 1 -2q0 -5 -15.5 -15.5t-45.5 -20.5h1q-11 -5 -44 -12.5t-83 -7.5
q-20 -7 -38.5 -9t-35.5 -2q-27 0 -46 2t-32.5 5.5t-23 8.5t-18.5 12q-9 -43 -18.5 -83.5t-17 -72t-13 -50.5t-6.5 -19q-8 2 -8 15q0 2 0.5 3t0.5 3v-1q0 8 3.5 37t8.5 69.5t11.5 88t12.5 91.5zM103 48q18 -10 44 -17q-11 5 -22 10.5t-20 13.5q-1 -2 -1 -3.5t-1 -3.5z
M216 437q-42 -2 -72.5 -24t-50.5 -54.5t-29.5 -72t-9.5 -75.5q0 -23 5.5 -42t15.5 -36q6 44 8.5 70t5.5 39.5t8 17t15 3.5q9 0 13.5 -4t4.5 -26q0 -23 -5.5 -61.5t-13.5 -83.5q25 -24 54 -39.5t57 -24.5q39 1 72 15t58 40.5t39 65t14 89.5q0 42 -11 78.5t-34 64.5t-58.5 44
t-85.5 16z" />
    <glyph glyph-name="Q" unicode="Q" horiz-adv-x="501" 
d="M501 49q2 -4 -14 -16.5t-49 -28.5q-6 -1 -20 -8t-35 -15t-47.5 -14.5t-57.5 -6.5q-32 0 -66 9q-9 -1 -17.5 -1.5t-16.5 -0.5q-44 0 -73.5 9.5t-47.5 23t-26 29.5t-8 28q0 7 3.5 13t10.5 6q3 0 7.5 -7t13 -17t22.5 -20.5t36 -16.5q-41 33 -63 87.5t-22 115.5q0 43 11.5 85
t35.5 78t61.5 62.5t88.5 38.5q10 2 20 3t20 1q48 0 87.5 -18.5t68 -50t44 -72.5t15.5 -86q0 -59 -20 -109.5t-54 -88.5q-33 -30 -65.5 -48.5t-64.5 -29.5q49 0 88 10.5t67.5 23t45 23t20.5 10.5zM165 10q47 0 96 14t89.5 45t66 80t25.5 119q0 34 -13 66t-36 57t-54.5 40.5
t-67.5 15.5q-48 0 -86.5 -19t-65.5 -51t-42 -73t-17 -86q0 -66 28.5 -122t76.5 -86z" />
    <glyph glyph-name="R" unicode="R" horiz-adv-x="416" 
d="M50 75q-27 17 -27 36q0 2 3 9t8 7q2 0 7 -3.5t14 -8.5q2 11 3 21.5t3 21.5q-12 22 -20 47t-8 54q0 39 16.5 85.5t48.5 81.5q2 15 3 25.5t3 17.5t7.5 10t17.5 3q5 0 8.5 -4t5.5 -19q17 10 39.5 14.5t42.5 4.5q42 0 75.5 -16t57 -43.5t36.5 -63.5t13 -76q0 -65 -23 -110
t-57 -73t-71.5 -41t-65.5 -14q2 -1 2.5 -2t2.5 -2q40 -35 77.5 -47t69.5 -12q19 0 34.5 3t26.5 6.5t17.5 6l6.5 2.5v-1q0 -1 -5.5 -6.5t-16.5 -11.5t-27.5 -11t-38.5 -5q-16 0 -37.5 4t-46.5 13t-51 25t-51 40q-23 3 -36.5 5t-21.5 4t-13 4.5t-12 6.5q-8 -35 -13.5 -55.5
t-6.5 -20.5q-9 2 -9 15q0 2 2 18.5t7 54.5zM80 103q12 -5 27 -9q-11 13 -22 28q-2 -5 -2.5 -9.5t-2.5 -9.5zM141 417q-3 -25 -8 -56t-11.5 -64.5t-14 -69t-14.5 -68.5q11 -20 24.5 -38t27.5 -35q6 -1 12 -1h13q18 0 37.5 2.5t41.5 8.5q50 19 83 72t33 125q0 28 -10.5 54.5
t-29 47t-44 33t-55.5 12.5q-51 0 -85 -23zM87 350q-11 -25 -17 -51.5t-6 -50.5q0 -8 1.5 -15t3.5 -15q5 34 9.5 68t8.5 64z" />
    <glyph glyph-name="S" unicode="S" horiz-adv-x="321" 
d="M315 290q10 7 18 21t8 33q0 16 -8.5 33.5t-23.5 32t-35 24t-43 9.5q-17 0 -41 -12t-46 -32t-38 -46.5t-16 -54.5q0 -23 13 -42t32.5 -36.5t42 -35.5t42 -37.5t32.5 -42t13 -50.5q0 -20 -7 -38t-19 -32t-27.5 -22t-32.5 -8q-47 0 -77.5 13t-48.5 29t-24.5 31t-5.5 18
q6 2 12 -7.5t20 -24.5l-1 1q1 -3 9.5 -9t21 -13t29.5 -12t37 -5q13 0 28 3t28 11t21.5 22t8.5 36q0 34 -25 63q-15 17 -42 36.5t-53.5 43t-46 51t-19.5 60.5q0 32 16 65t42.5 59.5t59.5 43.5t67 17q42 0 70 -16t45 -39t24.5 -47.5t7.5 -42.5q0 -32 -10 -50.5t-23.5 -28.5
t-27 -13t-19.5 -3q-14 0 -22.5 6t-8.5 15q0 8 2.5 10t8 2.5t13.5 1.5t19 9z" />
    <glyph glyph-name="T" unicode="T" horiz-adv-x="282" 
d="M196 514q8 -1 8 -28q0 -22 -4.5 -56t-12.5 -76q55 -5 92 -10t37 -6q0 -5 -4 -8t-18 -4t-40.5 -1h-71.5q-8 -40 -18 -82.5t-20 -86.5q-8 -32 -15 -65.5t-7 -61.5q2 -20 15 -28t30 -8q20 0 38 8q23 9 40 19.5t29 20t18.5 15.5t8.5 6q1 -1 1 -4t-3.5 -10t-11.5 -15
q-4 -3 -12 -11t-20.5 -17.5t-31 -19t-42.5 -16.5q-8 -4 -19 -4q-12 0 -25 5.5t-23 15t-16.5 22t-6.5 27.5q0 36 5 74t12.5 75.5t15 73t13.5 66.5h-242q-12 0 -19 3t-7 26q0 8 23.5 11t61.5 3q41 0 91 -2.5t99 -6.5q10 53 13 84t6 47t9.5 20.5t23.5 4.5z" />
    <glyph glyph-name="U" unicode="U" horiz-adv-x="361" 
d="M294 -16q-9 2 -9 13q0 2 0.5 4t0.5 6q-2 -2 -3.5 -3t-3.5 -3q-4 -2 -19 -12.5t-38.5 -22.5t-53.5 -21.5t-63 -9.5q-15 0 -30 5t-27 15.5t-20 25.5t-8 35q0 21 6.5 40.5t7.5 38.5q15 60 30 117.5t27 104.5t19.5 79.5t9.5 42.5q1 10 2.5 18.5t4.5 13.5t9.5 8t17.5 3
q8 -1 8 -23t-7.5 -60t-20 -87t-28.5 -104.5t-33 -111.5q-4 -23 -11.5 -46t-7.5 -42q0 -26 19.5 -36t42.5 -10q29 0 57 7.5t51 18t39.5 20.5t23.5 15q2 20 6.5 54t9.5 73.5t10.5 81t10.5 77t8.5 60.5t4.5 32q2 11 4 17.5t17 6.5q9 0 14 -3.5t5 -26.5q0 -24 -6 -64.5t-15 -86
t-19.5 -92t-19.5 -84t-15.5 -61t-7.5 -23.5z" />
    <glyph glyph-name="V" unicode="V" horiz-adv-x="213" 
d="M275 385q-22 -32 -40 -71t-33.5 -83t-29.5 -92l-28 -96q-4 -13 -9 -33.5t-12 -40.5t-17.5 -34.5t-24.5 -14.5q-18 0 -27 12t-12.5 27.5t-3.5 30.5v21q-3 49 -5 93.5t-3 84.5q-2 75 -3.5 120t-2.5 71t-2 39t-1 24q0 14 4.5 22t18.5 12q4 0 8.5 -14.5t8.5 -41t7 -63.5
t4 -83q1 -32 0.5 -68.5t0.5 -75t3 -77.5t7 -76q0 2 0.5 2.5t0.5 2.5l20 56q22 73 49.5 151.5t61.5 144t77 107.5t97 42q17 0 31 -4t25 -9t17.5 -10t8.5 -6q-1 -2 -5 -2q-9 0 -25 8t-42 8q-12 0 -27 -3.5t-31.5 -13t-33.5 -26t-32 -41.5z" />
    <glyph glyph-name="W" unicode="W" horiz-adv-x="441" 
d="M160 10q1 0 4.5 8.5t7.5 20.5t7.5 25t4.5 21q12 58 17 93t8.5 54t8.5 24.5t18 5.5q11 0 13.5 -7.5t2.5 -42.5q0 -7 -0.5 -11.5t-0.5 -10t-0.5 -14.5t-0.5 -25q0 -22 2 -51.5t10 -56t23 -45t41 -18.5q6 0 7 6t3 11q16 75 37.5 154.5t52.5 144t73.5 106t99.5 41.5
q14 0 23 -2t11 -2q-2 -9 -36 -9q-5 -1 -17 -4t-28 -11.5t-33 -23.5t-33 -40q-31 -48 -54.5 -116.5t-37.5 -143.5l-21 -113q-9 -26 -19.5 -33t-12.5 -7t-2 0.5t-2 0.5t-5.5 -0.5t-6.5 -0.5q-24 0 -43.5 11.5t-33.5 28t-21.5 34.5t-7.5 32q-4 -12 -8 -25t-10.5 -23.5
t-15.5 -17.5t-22 -7q-35 0 -54.5 25.5t-29 61.5t-11.5 75.5t-2 66.5q0 48 4 91.5t9 79.5q2 11 4 23t2 24q0 13 -4.5 22t-16.5 9t-19.5 -4t-12 -8.5t-6.5 -8t-3 -3.5q-3 0 -3 5t6 14t21 16h-1q0 5 13 5t28.5 -8t15.5 -30q0 -34 -3 -76t-3 -95q0 -31 2 -71.5t9 -77t19.5 -63.5
t32.5 -31v-3zM343 -19q-2 0 -3 -0.5t-3 -0.5q5 0 6 1zM330 -25l-1 -1z" />
    <glyph glyph-name="X" unicode="X" horiz-adv-x="300" 
d="M101 322q1 0 1.5 0.5t1.5 0.5q11 0 30.5 -28t42.5 -68q40 75 66 125t42.5 79.5t25.5 41.5t15 12q3 0 12 -2t9 -10q0 -11 -12.5 -39t-33 -67t-47.5 -85.5t-55 -94.5q18 -35 35 -70t30.5 -63.5t21.5 -47.5t8 -21q-1 -1 -5 -1q-8 0 -12 9v-1q-3 4 -13 19t-24 36.5t-30.5 48
t-33.5 53.5q-30 -48 -58 -93t-49.5 -79t-35 -54t-14.5 -20q-3 1 -3 7q0 10 7 21h-1q3 7 15.5 31t30.5 58.5t40.5 76.5t45.5 86q-21 34 -35 56t-22 35t-11.5 19t-3.5 8q0 9 19 21z" />
    <glyph glyph-name="Y" unicode="Y" horiz-adv-x="384" 
d="M59 14q-14 5 -27 21.5t-13 35.5q0 18 3.5 33t7.5 30q15 55 30 107t28 94t21 71t9 38q2 9 3 16t4 12t9.5 7.5t18.5 2.5q8 -2 8 -20q0 -20 -8 -55t-21 -79t-30 -94t-34 -101q-11 -30 -11 -55q0 -17 10.5 -28.5t39.5 -15.5q19 14 39.5 24t42.5 10q14 0 27 -2t25 -4
q15 6 26 11.5t18 9.5q4 29 7 54.5t6 53.5t7.5 63t10.5 83q1 8 4.5 18t10 18.5t15.5 14.5t21 6q15 0 24.5 -7.5t15.5 -18.5t8.5 -22.5t2.5 -20.5q2 -54 -21 -113t-61 -105q-3 -20 -5 -31.5t-3.5 -19t-3.5 -13.5t-3 -15q19 -12 28 -21.5t11 -9.5q-2 -2 -4 -2q-5 0 -14.5 5
t-23.5 13q-8 -35 -20 -69.5t-32 -65.5t-49 -56t-70 -41q-15 -9 -35 -9q-42 0 -63 26.5t-21 71.5q0 39 14.5 75.5t37.5 62.5q-11 1 -21 6zM359 334q-5 -49 -10 -95t-9 -92q6 10 13 27.5t13.5 38.5t11 45.5t4.5 50.5q0 17 -2.5 32t-10.5 15q-7 0 -8.5 -8.5t-1.5 -13.5zM284 68
q-5 -2 -9.5 -5.5t-9.5 -6.5q5 -2 8.5 -3t7.5 -3zM192 45q-18 -2 -36 -10q10 2 19 4.5t17 5.5zM113 5q-22 -23 -37.5 -58.5t-15.5 -70.5q0 -27 10.5 -47.5t33.5 -20.5q9 0 18 4q37 10 63.5 33.5t45 54t30 65.5t17.5 68q-17 7 -35 11q-21 -11 -55.5 -24t-74.5 -15z" />
    <glyph glyph-name="Z" unicode="Z" horiz-adv-x="408" 
d="M555 498q26 -23 26 -39q0 -18 -11 -28.5t-26 -15.5t-31 -6.5t-26 -1.5q-12 0 -24 1t-23 3q-18 -20 -28.5 -38t-15.5 -23q-13 -23 -32 -53t-41 -65t-46 -74t-47 -79q-10 -20 -20.5 -40t-10.5 -37q0 -19 18 -29.5t40 -10.5q17 0 35 4.5t32 9.5q48 17 75 35t30 18q1 -1 1 -3
q0 -11 -19 -24q-3 -2 -17.5 -13t-36.5 -23t-50.5 -22t-59.5 -10q-12 0 -26.5 4.5t-26.5 13.5t-20 22.5t-8 31.5q0 23 11 44.5t16 37.5q26 53 54 102t52.5 88t42 65.5t22.5 35.5q8 13 13.5 21.5t13.5 16.5q-15 2 -38.5 3.5t-43.5 1.5q-48 0 -97 -13t-88.5 -36t-64.5 -54.5
t-25 -69.5q0 -27 9.5 -43t21.5 -24t22.5 -10t12.5 -2q0 -5 -16 -5q-3 0 -14 2t-23 10.5t-21.5 27t-9.5 51.5q0 41 27 77.5t70.5 64t98.5 43.5t112 16q24 0 48 -1.5t48 -2.5q15 15 39.5 33t57.5 18q9 0 18.5 -2.5t19.5 -3.5zM511 449q15 4 21 3t6 1q0 4 -7.5 5.5t-16.5 1.5
q-8 0 -15.5 -4t-12.5 -7h25z" />
    <glyph glyph-name="a" unicode="a" horiz-adv-x="287" 
d="M260 13q-3 -4 -15.5 -14t-29.5 -10q-16 0 -27.5 12t-16.5 26q-12 -13 -34 -26t-54 -13q-20 0 -35 8t-25.5 20.5t-16 29t-5.5 34.5q0 31 9.5 62.5t27.5 57.5t44.5 42.5t60.5 16.5q23 0 37 -5.5t18 -8.5q0 9 3.5 14.5t19.5 5.5q10 0 13.5 -3t3.5 -17q0 -12 -5 -30t-11 -40
t-12 -47.5t-8 -52.5q0 -4 -0.5 -8t-0.5 -8q0 -15 4 -28t12 -14q14 -2 27 8t23.5 22.5t18.5 23t14 10.5q2 0 3 -3t1 -5q0 -3 -5 -10v1q-3 -4 -12 -17.5t-27 -33.5zM165 71q-2 39 5 75t19 59q-8 4 -19.5 7t-26.5 3q-23 0 -42.5 -14t-34.5 -35t-23.5 -45.5t-8.5 -45.5
q0 -27 19 -44t43 -17q20 0 40 11.5t30 22.5q-1 6 -1 11.5v11.5z" />
    <glyph glyph-name="b" unicode="b" horiz-adv-x="237" 
d="M221 141q0 -24 -9 -50t-25.5 -48t-39.5 -36.5t-51 -14.5q-14 0 -27.5 4.5t-24.5 11t-19 13.5t-11 12q-13 -43 -14 -43q-8 2 -8 14t5.5 48.5t13.5 85t17.5 102.5t18 101t14.5 82t8 45q2 14 5 20t22 6q5 0 9.5 -4t4.5 -20q0 -15 -3 -39t-8.5 -53t-13 -62t-15.5 -67
q11 4 24.5 7.5t30.5 2.5q23 -1 41 -11.5t30 -27t18.5 -37.5t6.5 -42zM18 48q14 -14 31 -22t40 -8q15 0 31 5.5t29.5 20t22 38t8.5 59.5q0 35 -19.5 54t-48.5 19q-27 0 -36.5 -6t-17.5 -8q-11 -44 -21.5 -83.5t-18.5 -68.5z" />
    <glyph glyph-name="c" unicode="c" horiz-adv-x="228" 
d="M248 91q-2 -3 -16 -19.5t-36.5 -34.5t-52.5 -32.5t-64 -14.5q-37 0 -57.5 23.5t-20.5 63.5q0 43 16.5 76t39.5 55t49 33.5t44 11.5q24 2 40 -6.5t16 -18.5q0 -3 -4.5 -10.5t-14.5 -7.5q-5 0 -11 2.5t-17 2.5q-20 0 -41 -11t-38 -31.5t-28.5 -48.5t-12.5 -61
q0 -23 13 -31.5t33 -8.5q41 0 71.5 15.5t51.5 34t32 33t13 12.5q3 -2 3 -7q0 -9 -8 -20z" />
    <glyph glyph-name="d" unicode="d" horiz-adv-x="287" 
d="M301 74q0 -8 -7.5 -22t-20.5 -28t-30.5 -24.5t-36.5 -10.5q-11 4 -19.5 11t-9.5 24q-13 -13 -34 -22.5t-53 -9.5q-42 0 -65.5 28t-23.5 66q0 32 11 63t30.5 56t46.5 40t59 15q20 0 34 -4.5t21 -8.5q16 81 24.5 130t15 75t13.5 34t19 8q8 0 10.5 -4t2.5 -18
q0 -18 -5 -48.5t-13.5 -68.5t-19 -81.5t-21.5 -87.5q-9 -34 -19.5 -71t-10.5 -63q0 -15 5.5 -27.5t16.5 -12.5q10 0 21.5 9.5t22 21t19.5 22.5t14 14q2 1 2.5 -1t0.5 -4zM165 71q3 41 10.5 75.5t13.5 58.5q-8 4 -19.5 7t-26.5 3q-23 0 -42.5 -14t-34.5 -35t-23.5 -45.5
t-8.5 -45.5q0 -27 19 -44t43 -17q20 0 40 11.5t30 22.5q-1 6 -1 11.5v11.5z" />
    <glyph glyph-name="e" unicode="e" horiz-adv-x="231" 
d="M255 121q1 -1 1 -4q0 -9 -21.5 -29.5t-52.5 -41.5t-64 -37t-57 -16t-43 16t-19 64q0 42 15.5 76t37.5 58.5t46.5 38t42.5 14.5q10 0 22.5 -2t23.5 -8.5t18.5 -18t7.5 -29.5q0 -28 -13.5 -48t-33 -33t-40 -19.5t-33.5 -6.5q-14 0 -26 3t-22 8q-8 -24 -8 -46q0 -18 5 -28
t21 -10q11 0 23 3t23 8q36 15 62.5 31t44.5 29.5t27.5 21.5t11.5 6zM111 204q-17 -9 -33 -31t-27 -50q10 -2 18 -2q19 0 37 8t32 20t22.5 25.5t8.5 24.5t-6 13.5t-17 2.5q-16 0 -35 -11z" />
    <glyph glyph-name="f" unicode="f" horiz-adv-x="98" 
d="M47 -58q-1 -1 -3 -1q-4 0 -11.5 4t-19.5 10q-12 -34 -31.5 -75t-47 -76t-62.5 -59t-78 -24q-24 0 -39 9t-23.5 23t-11.5 30t-3 31q0 44 15 80t39 62t54.5 40.5t62.5 14.5q29 0 51.5 -6.5t40.5 -14.5q12 40 24 87t22.5 92t18 84.5t12.5 64.5q-22 -1 -38.5 -1.5t-20.5 -0.5
q-5 0 -8.5 3t-4.5 26q0 9 12 12.5t31 3.5q8 0 17 -0.5t19 -1.5q6 31 9.5 56.5t8 42.5t12 26.5t20.5 9.5q2 0 4.5 -2.5t2.5 -12.5q0 -16 -4 -48t-11 -78q31 -5 53.5 -10t22.5 -7q0 -9 -3.5 -9.5t-8.5 -2.5q-29 -17 -48 -37t-35 -48q-5 -24 -13 -58.5t-17 -73t-19.5 -75.5
t-19.5 -65q13 -10 20 -17t9 -8zM101 320q-3 -18 -6 -39q17 21 40 41q-8 -1 -16.5 -1t-17.5 -1zM-206 -244q35 0 64.5 23t52 57t39 71.5t25.5 66.5q-14 6 -33.5 12.5t-42.5 6.5q-26 0 -53 -12.5t-49 -35t-35.5 -54.5t-13.5 -72q0 -33 11.5 -48t34.5 -15z" />
    <glyph glyph-name="g" unicode="g" horiz-adv-x="254" 
d="M198 -64q-2 -2 -6 -2q-2 0 -10 2q-8 -23 -22.5 -50.5t-35.5 -52t-48.5 -41t-61.5 -16.5q-20 0 -33.5 8t-22.5 20.5t-13 27.5t-4 29q0 29 10 54t26.5 43.5t37 29t42.5 10.5q28 0 51.5 -8.5t38.5 -16.5q4 16 6.5 30.5t4.5 28.5q-11 -11 -32 -21.5t-47 -10.5q-22 0 -37 8.5
t-24.5 22t-13.5 29t-4 30.5q0 30 8.5 60t25.5 54t42.5 39t59.5 15q21 0 35 -4.5t20 -7.5q4 9 8.5 14.5t13.5 5.5q3 0 8.5 -1t5.5 -13q0 -17 -5 -53.5t-10 -90.5q-5 -32 -9 -74.5t-18 -87.5q11 -11 13 -10zM41 -180q44 17 67.5 55.5t34.5 81.5q-12 6 -30 13t-40 7
q-41 0 -70.5 -27.5t-29.5 -82.5q0 -23 9 -39.5t29 -16.5q12 0 30 9zM163 63q6 52 10.5 90t7.5 54q-8 3 -18.5 5.5t-24.5 2.5q-19 0 -37.5 -10t-33.5 -27.5t-24.5 -42t-9.5 -53.5q0 -26 18 -41t41 -15q19 0 39.5 12t31.5 25z" />
    <glyph glyph-name="h" unicode="h" horiz-adv-x="272" 
d="M283 61l-7 -11t-19 -24.5t-28 -25t-33 -11.5q-18 0 -29 8t-16.5 20.5t-7 27t0.5 26.5q3 32 10.5 63t14 56t10.5 40t0 15q-47 -16 -83.5 -46.5t-57.5 -72.5q-16 -58 -27.5 -97t-13.5 -39q-7 1 -7 13q0 5 1 9q1 9 6.5 43.5t14 82t18.5 102t18.5 102t15 82.5t8.5 44
q2 14 5.5 20t22.5 6q5 0 9 -4t4 -19q0 -19 -5.5 -51.5t-14 -72t-19.5 -83.5t-22 -86q26 32 65 59t78 36q13 3 19.5 -2t4.5 -25q-2 -26 -14 -74.5t-23 -98.5q-1 -5 -1.5 -9t-0.5 -9q0 -14 4 -26.5t13 -12.5q9 1 21 9t20 15q21 18 33 28.5t14 10.5q3 -3 3 -7t-5 -11z" />
    <glyph glyph-name="i" unicode="i" horiz-adv-x="129" 
d="M137 75q0 -9 -9.5 -23.5t-22.5 -28.5t-27.5 -24t-24.5 -10q-18 0 -29 7.5t-17 19.5t-7 26.5t1 28.5q3 33 9 62.5t12 52.5t10 39t4 21q2 9 4 14t19 5q9 0 13 -3t4 -16t-3.5 -32t-9 -42.5t-12 -48.5t-12.5 -50q-1 -5 -1.5 -10t-0.5 -10q0 -14 3.5 -25.5t12.5 -11.5
q12 0 25.5 10.5t25.5 23t20.5 22.5t9.5 10q3 -3 3 -7zM60 378q0 2 0.5 3t5.5 1q10 1 18 -1q7 -2 12.5 -5t5.5 -11q0 -10 -6 -23.5t-13.5 -25.5t-14.5 -20.5t-9 -8.5q-10 2 -10 6q0 3 1.5 15.5t3.5 27t4 27t2 15.5z" />
    <glyph glyph-name="j" unicode="j" horiz-adv-x="68" 
d="M78 371q12 1 14 -12q1 -10 -3 -24.5t-10 -27.5t-11.5 -22t-7.5 -9q-8 -1 -9 1.5t-1 5.5q-1 5 -1 18v26.5v24.5v14q-2 4 6 5q3 1 8.5 0.5t14.5 -0.5zM53 257q14 -2 11 -16q-6 -32 -13 -69.5t-15 -77.5t-16.5 -79t-17.5 -73q9 -12 11 -12q-2 -2 -5 -2q-2 0 -10 4
q-9 -23 -25.5 -50t-38.5 -50t-50 -37.5t-61 -12.5q-19 1 -32.5 10t-22 21.5t-12 27.5t-2.5 29q2 30 14 54.5t30 42t40 26.5t44 8q28 -4 49.5 -12.5t37.5 -18.5q5 19 9.5 38t9.5 36q13 71 20.5 113.5t14 65t13 29t17.5 5.5zM-148 -176q45 14 71 50.5t41 79.5
q-12 7 -29.5 14.5t-39.5 9.5q-42 3 -72.5 -22.5t-34.5 -79.5q-2 -23 6 -40t28 -18q12 -2 30 6z" />
    <glyph glyph-name="k" unicode="k" horiz-adv-x="267" 
d="M282 83q3 -2 3 -8q0 -14 -11 -30t-27 -29.5t-33.5 -23t-30.5 -9.5q-15 0 -25 7.5t-17 18t-10.5 22t-5.5 19.5q-6 -2 -12.5 -4t-13.5 -2q-20 0 -34.5 15t-14.5 35q0 23 15 43t41 20q17 0 24.5 -9.5t12.5 -33.5q13 15 22.5 38.5t14.5 45.5t5.5 38.5t-5.5 18.5
q-44 -14 -82 -46t-60 -70q-9 -32 -16.5 -59t-13.5 -46.5t-9.5 -31t-4.5 -11.5q-8 2 -8 15q0 12 6 48.5t14.5 84.5t18.5 102t19.5 101.5t16 82t8.5 44.5q2 14 6 20t22 6q5 0 9 -4t4 -18q0 -18 -5 -49.5t-13.5 -70.5t-19 -82t-21.5 -85q12 14 28.5 29t35.5 27.5t37.5 20.5
t34.5 8q4 0 10.5 -1t11.5 -7t9 -19t4 -37q0 -14 -3 -32.5t-11 -38t-22 -39t-35 -34.5q4 -22 13.5 -39.5t26.5 -17.5q8 0 16 4q21 9 35 21.5t22.5 24t12 19.5t5.5 8zM107 125h-1h1zM102 86q4 1 12 5q-2 8 -3.5 19.5t-3.5 11.5q-9 0 -13.5 -11t-4.5 -18q0 -9 6 -9q4 0 7 2z
" />
    <glyph glyph-name="l" unicode="l" horiz-adv-x="118" 
d="M130 74q3 -2 -4.5 -16.5t-21 -30.5t-30 -28.5t-29.5 -9.5q-17 1 -26 8.5t-13 17t-4.5 21t-0.5 20.5q0 36 5.5 78.5t14 85.5t18.5 84.5t19 74.5l15 55t7 27q3 16 7 24.5t22 8.5q7 0 10 -3.5t3 -17.5q0 -18 -5.5 -48.5t-14.5 -69.5t-20.5 -83t-23.5 -89q-8 -32 -18.5 -68
t-10.5 -63q0 -16 3 -28t16 -12q11 0 23 10.5t23.5 23t20 23t12.5 10.5q2 0 1.5 -2t1.5 -3z" />
    <glyph glyph-name="m" unicode="m" horiz-adv-x="408" 
d="M201 150q-8 -26 -16.5 -51.5t-16.5 -47.5t-13 -37.5t-5 -21.5q0 -2 1 -2q-8 0 -10.5 5t-2.5 20q0 18 5.5 50t12.5 65.5t13 62.5t7 43q-36 -12 -67.5 -35t-50.5 -55q-8 -25 -16.5 -50.5t-16 -46.5t-12.5 -36.5t-5 -20.5q0 -2 1 -2q-5 0 -9 5t-4 20q0 19 6 53.5t13.5 70.5
t13.5 65.5t6 40.5q0 4 -0.5 7.5t2 6t8.5 4.5t19 3q13 -3 13 -28q0 -10 -2 -22.5t-5 -26.5q24 27 61 48t75 23q13 -3 13 -26q0 -9 -2 -19.5t-4 -22.5q10 12 25 23.5t31.5 21.5t33.5 16t33 6q9 0 13.5 -2t4.5 -16q0 -12 -4 -31t-9.5 -42t-12 -48t-12.5 -49q-1 -4 -1.5 -13
t1 -18t5 -16t10.5 -7q20 0 39.5 15.5t43.5 46.5q3 -3 3 -7t-5 -11l-6 -11t-17 -24.5t-26 -25t-32 -11.5q-19 0 -30.5 9t-17 21.5t-6.5 26t1 22.5q3 31 8.5 58.5t11 50t10 38.5t5.5 23q-34 -13 -63.5 -35.5t-48.5 -52.5z" />
    <glyph glyph-name="n" unicode="n" horiz-adv-x="285" 
d="M294 79q3 -3 3 -7t-5 -11l-7 -11t-19 -24.5t-27.5 -25t-32.5 -11.5q-19 0 -29.5 9t-16 22t-6.5 26t-1 22q3 33 9 62t11.5 52t10 38.5t4.5 20.5q-3 0 -7 -2q-79 -25 -122 -91q-8 -25 -17 -50t-16.5 -46.5t-12.5 -37t-5 -21.5q0 -3 1 -3q-5 0 -9 5.5t-4 19.5q0 19 6 53.5
t13.5 70.5t14 65.5t6.5 40.5q0 4 -0.5 7.5t2 6t8.5 4.5t19 3q13 -3 13 -27q0 -10 -2 -22.5t-5 -26.5q28 30 66.5 49.5t76.5 19.5q5 0 9.5 -3t4.5 -15t-3.5 -31t-9 -42t-12 -48t-12.5 -49q-1 -5 -1.5 -9t-0.5 -9q0 -14 4 -24.5t12 -11.5q18 -2 33 7.5t27 21.5t19.5 22t9.5 11
z" />
    <glyph glyph-name="o" unicode="o" 
d="M297 164q1 -1 1 -3q0 -3 -6 -13.5t-18 -23t-30 -24t-43 -15.5q-6 -14 -18.5 -30.5t-29 -31t-37 -24.5t-43.5 -10q-28 0 -44.5 14.5t-25.5 34t-11.5 39t-2.5 28.5q0 17 3 32t8 29q12 40 29 62t32.5 32t26.5 12t12 2q9 0 15 -4.5t6 -13.5q0 -5 -1 -8q0 -1 -14 -8t-30.5 -24
t-30 -46t-13.5 -72q0 -26 10 -47t36 -23q28 3 50 18.5t38 37.5q-30 5 -49 30.5t-19 55.5q0 21 6.5 38t15.5 30t19.5 20t18.5 7q12 0 23 -8t19.5 -22t13 -32.5t4.5 -39.5q0 -20 -4 -37q23 10 33.5 19t15 15t6.5 9.5t9 3.5t19 -9zM184 117q10 24 10 51q0 11 -1.5 24.5t-6 25.5
t-12 20.5t-18.5 8.5q-6 0 -12 -7t-10.5 -17t-7 -21.5t-2.5 -21.5q0 -24 14.5 -44t38.5 -20q2 0 3.5 0.5t3.5 0.5z" />
    <glyph glyph-name="p" unicode="p" horiz-adv-x="273" 
d="M291 98q6 -2 6 -12q0 -15 -6 -32.5t-17.5 -32.5t-27 -25t-33.5 -10q-27 0 -44.5 14.5t-17.5 37.5q0 22 4.5 43.5t9.5 41t9.5 36t4.5 28.5q0 18 -6.5 25.5t-16.5 7.5q-17 0 -31.5 -8t-26.5 -19t-21 -22.5t-13 -18.5q-7 -37 -17.5 -80.5t-21.5 -87t-22 -84t-20 -71.5
t-15 -49.5t-7 -18.5q-8 2 -8 14t6 48.5t14.5 85t18.5 102.5t19 101t15.5 82t8.5 45q2 14 6 20t23 6q4 0 8 -3t4 -17q0 -4 -0.5 -8.5t-0.5 -9.5q4 3 11.5 9.5t17 13t22 11t26.5 4.5q18 0 31 -7.5t21 -18.5t11.5 -24t3.5 -23q0 -23 -5.5 -43t-12.5 -39t-12.5 -36.5t-5.5 -33.5
q0 -27 32 -27q17 0 31.5 13t25 29t16 29.5t3.5 13.5z" />
    <glyph glyph-name="q" unicode="q" horiz-adv-x="247" 
d="M221 -95q2 2 4 2h-1l4 -1.5t9 -4.5t9 -7.5t4 -10.5t-10.5 -16.5t-33.5 -10.5q-12 0 -23 4t-20 10q-14 -48 -23 -78.5t-11 -30.5q-7 1 -7 13q0 9 3 24q2 13 5.5 34t9.5 53q-12 8 -28 8q-19 0 -34.5 -8t-17.5 -8t-3 2.5t-1 4.5t1.5 3.5t1.5 3.5t5.5 7t14.5 10.5t21.5 10
t26.5 4.5h9.5t9.5 -2q3 20 6.5 40t7.5 41q-11 -5 -27.5 -9.5t-36.5 -4.5t-37.5 10.5t-30.5 27.5t-20.5 38.5t-7.5 42.5q0 27 10 54t27.5 48.5t40 35t47.5 13.5q23 0 45 -13t31 -22q2 20 6 31t24 11q5 0 9.5 -3.5t4.5 -19.5q0 -21 -7 -59.5t-17.5 -84.5t-23 -95.5
t-24.5 -94.5q20 -8 33 -8q7 0 10 1.5t5 3.5zM109 33q16 0 30 4t27 11q2 1 4.5 13t6.5 29.5t7.5 38t6.5 37.5t5 28.5t2 10.5q0 3 -5 7t-14.5 7.5t-21.5 6.5t-25 3q-14 0 -30 -5.5t-29.5 -19.5t-22 -37.5t-8.5 -59.5q0 -35 19 -54.5t48 -19.5z" />
    <glyph glyph-name="r" unicode="r" horiz-adv-x="215" 
d="M204 260q13 -1 13 -16q0 -10 -6 -24t-14 -26.5t-15 -21t-10 -8.5q-9 0 -9 5q0 2 3 23.5t6 41.5q-34 -7 -64.5 -27t-48.5 -49q-7 -26 -16 -53t-16.5 -50.5t-13 -40t-5.5 -22.5q0 -3 1 -3q-8 0 -11 5.5t-3 19.5q0 19 6 54t12.5 71t12.5 66.5t6 40.5q0 4 -0.5 7.5t2 5.5
t8.5 4t19 3q13 -3 13 -28q0 -12 -3 -28q28 24 61.5 37t71.5 13z" />
    <glyph glyph-name="s" unicode="s" horiz-adv-x="233" 
d="M111 182q9 -8 25 -16t31.5 -20t26.5 -29t11 -44q0 -21 -8.5 -37.5t-22 -28.5t-31 -18t-34.5 -6q-23 0 -42.5 6.5t-34.5 17t-23.5 23.5t-8.5 27q0 10 4 17.5t9.5 13t11 9t7.5 4.5q1 -1 1 -5q0 -8 -8 -14.5t-8 -22.5q0 -4 4 -11.5t13.5 -15.5t24.5 -14t38 -6q27 0 49.5 14
t22.5 45q0 21 -17.5 33t-38.5 23t-38.5 26.5t-17.5 42.5q0 21 8 34.5t19 21.5t23.5 11.5t20.5 3.5q24 0 37.5 -8.5t20 -19t7.5 -20t1 -12.5q0 -31 -19 -31q-15 0 -17 7.5t-2.5 16.5t-4 16.5t-20.5 7.5q-10 0 -20.5 -8t-10.5 -18q0 -9 11 -16z" />
    <glyph glyph-name="t" unicode="t" horiz-adv-x="124" 
d="M131 79q2 -2 2 -6q0 -8 -7 -22t-17.5 -27t-23 -23t-22.5 -10q-4 -1 -12 -1q-15 0 -25 7t-16 17.5t-8.5 22t-2.5 21.5q0 29 4.5 61t11 63.5t14 61t12.5 54.5q-41 0 -85 -0.5t-81.5 -0.5h-65h-34.5q-12 0 -19.5 3t-7.5 27q0 8 23 11.5t60 3.5q46 0 104.5 -4t112.5 -9
q6 28 8.5 45.5t5.5 27t8.5 13t17.5 3.5q8 0 11 -3.5t3 -17.5q0 -13 -2.5 -31t-7.5 -41q45 -5 74 -8.5t29 -5.5q0 -4 -2.5 -6.5t-13 -3.5t-32.5 -1.5t-61 -0.5q-17 -55 -30.5 -121t-24.5 -124q-3 -17 3 -27t17 -12q18 -3 31.5 9.5t23 27t15.5 24.5t10 3z" />
    <glyph glyph-name="u" unicode="u" horiz-adv-x="280" 
d="M297 79q3 -3 3 -7t-5 -11l-7 -11t-19 -24.5t-28 -25t-34 -11.5q-12 0 -21 6t-15 14t-9.5 17.5t-4.5 17.5q-5 -5 -14 -14.5t-22 -18.5t-29.5 -16t-36.5 -7q-14 0 -24 7t-17 16.5t-10.5 21t-3.5 20.5q1 36 6 68t11 57t11 42t5 23q0 10 3.5 16t20.5 6q9 0 12.5 -3t3.5 -16
q0 -14 -4 -34.5t-9.5 -45.5t-12 -52t-10.5 -54q-1 -5 -1 -13q0 -15 8 -21t20 -6t25.5 5t26 12t23 14.5t17.5 13.5q-1 2 -1 6q3 33 9 62.5t12 52.5t10.5 39t4.5 21q1 9 3.5 14t19.5 5q9 0 13 -3t4 -16t-3.5 -32t-9.5 -42.5t-12.5 -48.5t-12.5 -50q-1 -5 -1.5 -9t-0.5 -9
q0 -14 4 -25.5t13 -13.5q11 -2 25.5 7.5t27.5 22t23 23t13 10.5z" />
    <glyph glyph-name="v" unicode="v" horiz-adv-x="236" 
d="M193 255q2 -3 6.5 -21t9 -39t8 -39.5t4.5 -22.5v-3q-1 -3 -5 -6q-7 -5 -25 -5q-15 0 -18 31q-10 -38 -34 -80.5t-74 -77.5q-10 -5 -22 -5q-13 0 -24 6.5t-19.5 16.5t-13 21.5t-4.5 21.5q0 27 4.5 51t9.5 42q11 41 16 65t9 36t10 15t18 3q6 0 9.5 -2.5t3.5 -16.5t-3.5 -33
t-9.5 -42q-3 -10 -7 -24t-7.5 -29t-6.5 -30.5t-3 -27.5q0 -15 5 -24.5t18 -9.5q35 19 58.5 51.5t38 66t22 63t11.5 43.5q3 7 3 9q11 0 12 -4z" />
    <glyph glyph-name="w" unicode="w" horiz-adv-x="369" 
d="M322 119q-17 0 -21 31q-5 -19 -12.5 -40t-19.5 -42t-30.5 -41t-44.5 -35q-10 -5 -22 -5q-19 0 -33 12.5t-22 27.5q-4 -5 -9.5 -12t-14 -14t-19.5 -12t-25 -5q-17 0 -29 8.5t-19.5 20.5t-10.5 25.5t-3 24.5q3 35 9.5 66t13.5 55t12 40t5 22q2 8 4 13.5t17 5.5
q10 0 14.5 -2.5t4.5 -15.5t-4.5 -33t-11 -44t-13.5 -50.5t-13 -52.5q-2 -5 -2 -8.5v-7.5q0 -17 10.5 -27t24.5 -10t26.5 10t25.5 26q0 28 4.5 52.5t9.5 43.5q11 41 16.5 65t9.5 36t9.5 15t17.5 3q6 0 9.5 -2.5t3.5 -16.5t-3.5 -33t-9.5 -42q-3 -10 -7 -24t-7.5 -29
t-6.5 -30.5t-3 -27.5q0 -15 5 -24.5t18 -9.5q35 19 58.5 51.5t38 66t22.5 63t12 43.5q2 10 2 9q11 0 12 -4q2 -3 6.5 -21t9 -39t8 -39.5t4.5 -22.5q0 -5 -2.5 -7.5t-24.5 -6.5z" />
    <glyph glyph-name="x" unicode="x" horiz-adv-x="217" 
d="M214 273q5 -5 5 -13q0 -12 -9 -29t-24.5 -38t-36 -45t-42.5 -48q11 -35 19 -63t8 -39q0 -5 -4 -5q-5 0 -8 3t-7 11.5t-11 24.5t-21 42q-29 -31 -57 -60.5t-50 -53.5t-36 -41.5t-14 -23.5q0 -2 1 -2q-6 -2 -6 12q0 7 3 13q1 9 14 28.5t33 46t44.5 57.5t48.5 61
q-32 60 -47.5 95.5t-15.5 37.5q0 1 5 9t21 8q5 0 12.5 -9.5t16 -26t17.5 -37.5t18 -44q39 48 57 74t27.5 38.5t16 14.5t22.5 2z" />
    <glyph glyph-name="y" unicode="y" horiz-adv-x="278" 
d="M291 67l-7 -12.5t-19 -27.5t-28 -27t-34 -12q-7 0 -11 1q-2 -11 -4.5 -21t-5.5 -21l14 -12q-1 -1 -5 -1q-5 0 -12 3q-7 -23 -21 -51t-35 -52.5t-48.5 -41t-61.5 -16.5q-20 0 -34 8t-23 20t-13 26.5t-4 28.5q0 25 8 47.5t21 40.5t30.5 30.5t36.5 17.5q-16 9 -24 26.5
t-8 31.5q1 36 6.5 68t11.5 57t10.5 42t4.5 23q0 10 3.5 16t20.5 6q9 0 12.5 -3t3.5 -16q0 -14 -4 -34.5t-9.5 -45.5t-12 -52t-10.5 -54q-1 -4 -1 -12q0 -15 8 -21.5t20 -6.5q13 0 26 5t25 12t22 14.5t18 12.5q7 65 13 104.5t12.5 61t13.5 28.5t16 7q3 0 9 -0.5t6 -11.5
q0 -20 -9.5 -78.5t-20.5 -139.5q-2 -18 4.5 -21t16.5 2q14 5 26 15.5t20.5 21t14 18.5t7.5 8t3.5 -3.5t1.5 -5.5t-1 -3zM40 -180q45 17 67.5 55t33.5 83q-12 6 -30 12t-38 6q-42 0 -71.5 -27.5t-29.5 -81.5q0 -23 9 -39.5t29 -16.5q12 0 30 9zM144 -26q3 16 5.5 32t4.5 32
q-11 -9 -27 -22.5t-38 -21.5q17 -4 30.5 -9t24.5 -11z" />
    <glyph glyph-name="z" unicode="z" horiz-adv-x="237" 
d="M250 79q5 -5 5 -8q0 -2 -2 -4h1q0 -1 -9 -13.5t-23.5 -27t-32.5 -26.5t-37 -12q-5 0 -8 1l-4.5 -22.5t-2 -11t-1 -5t-0.5 -3.5q3 -3 5.5 -5t4.5 -4l3 -3q-2 -2 -7 -2q-3 0 -9 2q-5 -17 -16 -44.5t-31.5 -54t-50.5 -45.5t-72 -19q-29 0 -51.5 21.5t-22.5 70.5
q0 29 11 54.5t29 44t40.5 29.5t44.5 11q10 0 22 -3t23 -7.5t21.5 -9.5t17.5 -9q0 22 9 54t9 63q0 10 -4 15q-2 -2 -4 -4.5t-4 -5.5q-4 -3 -8.5 -9.5t-11 -13t-15.5 -11t-21 -4.5q-19 0 -29 11t-10 27q0 19 10.5 29.5t24 15.5t26 6.5t17.5 1.5h8t8 -1q17 16 31 31t25 27
q-17 0 -38 5t-43.5 10.5t-43.5 10t-36 4.5q-27 0 -27 -19q0 -6 1 -9q-7 1 -7 8q0 4 1 6q0 1 2 8.5t8.5 15t19 14t35.5 6.5q18 0 36 -2.5t34.5 -6t30 -6t23.5 -2.5q11 0 14 1.5t5 1.5q4 0 7.5 -4.5t10.5 -21.5q0 -5 -14 -28.5t-46 -65.5q8 -10 14 -24.5t6 -34.5
q0 -11 -0.5 -20t-1.5 -18q-2 -10 5 -15.5t9 -5.5q10 0 24 10t27 22.5t23 22.5t12 10zM66 -117q11 20 17.5 39t10.5 35q-14 7 -31.5 13t-39.5 6q-19 0 -36.5 -8t-31.5 -22.5t-22.5 -35t-8.5 -45.5q0 -27 10.5 -39.5t27.5 -12.5q14 0 30 6.5t30.5 17t26.5 22.5t17 24z" />
    <glyph glyph-name="plus" unicode="+" horiz-adv-x="254" 
d="M146 199q33 -6 58 -12.5t25 -8.5q0 -10 -8 -10q-5 -2 -28.5 -2.5t-52.5 -0.5q-6 -32 -12 -56t-8 -24q-11 0 -11 8q-1 5 -1.5 25t-0.5 46h-68q-5 0 -8.5 3t-3.5 26q0 13 23.5 14.5t55.5 -2.5v70q0 5 3 8.5t26 3.5q7 0 10.5 -7.5t4 -19.5t-0.5 -28t-3 -33z" />
    <glyph glyph-name="dieresis" unicode="&#xa8;" horiz-adv-x="134" 
d="M69 313q0 -3 -2 -3q-9 1 -15 4q-6 2 -10.5 5t-4.5 7t3 10t7 11t7 9.5t3 7.5q2 0 3 0.5t2 0.5q9 0 9 -34v-11t-2 -7zM129 363q2 0 3.5 -10.5t1.5 -21.5q0 -21 -4 -21q-9 1 -15 4q-6 2 -10.5 5t-4.5 7t3 10t7 11t7 9.5t3 7.5q2 0 3 0.5t2 0.5q2 0 4 -2z" />
    <glyph glyph-name="tilde" unicode="&#x2dc;" horiz-adv-x="168" 
d="M47 361q2 6 11.5 10t20.5 4q12 0 19.5 -5.5t13 -12.5t9 -12.5t7.5 -5.5q5 0 6 1t2 2.5t3 3t10 1.5q2 0 10.5 0.5t8.5 -9.5q0 -8 -9 -20.5t-27 -12.5q-17 0 -25.5 7.5t-14 16t-8.5 16t-8 7.5q-6 0 -12 -4.5t-11 -10t-8.5 -10.5t-3.5 -7q0 -1 1 -1q-8 0 -8 9v-1q0 3 2 13
t11 21z" />
    <glyph glyph-name="circumflex" unicode="&#x2c6;" horiz-adv-x="202" 
d="M120 362q9 -2 21.5 -10.5t25 -18t22.5 -17t13 -6.5q0 -8 -5 -8h1q-4 -2 -7 -2q-6 0 -15.5 2.5t-20 6.5t-21 8.5t-17.5 8.5q-12 -5 -28.5 -8t-30.5 -3q-11 0 -18.5 2t-7.5 5q0 10 4 10q2 -1 13.5 3t24.5 9.5t24.5 11.5t13.5 9q1 0 1 0.5t1 0.5q2 0 6 -4z" />
    <glyph glyph-name="equal" unicode="=" horiz-adv-x="264" 
d="M221 169q5 0 8.5 -3t3.5 -26q0 -8 -10.5 -11.5t-27.5 -3.5q-22 0 -50.5 4.5t-53.5 9.5t-42.5 10t-17.5 6q0 11 8 11q5 1 32 1.5t58.5 1t58.5 0.5h33zM31 211q0 8 10.5 11.5t27.5 3.5q22 0 50 -4.5t53.5 -10t43 -10.5t17.5 -6q0 -10 -8 -10q-5 -1 -32 -1.5t-58.5 -1
t-58.5 -0.5h-33q-5 0 -8.5 3t-3.5 26z" />
    <glyph glyph-name="divide" unicode="&#xf7;" horiz-adv-x="232" 
d="M124 140q2 -1 3.5 -11.5t1.5 -21.5q0 -20 -4 -20q-9 1 -15 4q-6 2 -10.5 4.5t-4.5 7.5q0 4 3 9.5t7 11t7 10t3 6.5q2 0 3 0.5t3 0.5q1 0 1.5 -0.5t1.5 -0.5zM115 274q2 0 3 0.5t2 0.5q2 0 4 -2v1q2 -1 3.5 -11.5t1.5 -21.5q0 -20 -4 -20q-9 1 -15 4q-6 2 -10.5 4.5
t-4.5 6.5t3 10t7 11.5t7 10t3 6.5zM15 193q0 8 11 11.5t28 3.5q22 0 50 -4.5t53 -9.5t42.5 -10t17.5 -6q0 -10 -8 -10q-5 -2 -32 -2.5t-58.5 -1t-58.5 -0.5h-33q-5 0 -8.5 3t-3.5 26z" />
    <glyph glyph-name="acute" unicode="&#xb4;" horiz-adv-x="135" 
d="M37 323q0 6 10 9.5t23.5 8t26.5 10t20 14.5q1 0 2 1h-1q0 -1 9 -6t9 -19q0 -6 -7.5 -11t-18.5 -8t-23.5 -4.5t-23.5 -1.5q-12 0 -20 1.5t-6 5.5z" />
    <glyph glyph-name="grave" unicode="`" horiz-adv-x="133" 
d="M133 323v-1q0 -3 -7.5 -4.5t-18.5 -1.5t-24 1.5t-24 4.5t-18 8t-7 11q0 7 3 12t6.5 8t6 4t0.5 1q1 0 1.5 -0.5t1.5 -0.5q2 -3 12.5 -8.5t23 -11t24 -9.5t15.5 -4h1q4 0 4 -9z" />
    <glyph glyph-name="slash" unicode="/" horiz-adv-x="220" 
d="M185 538q15 -3 15 -31q0 -25 -11 -66t-28 -90.5t-36.5 -103.5t-36.5 -105t-28 -95t-11 -73q0 -20 6.5 -31.5t20.5 -12.5q-1 -1 -3 -1q-4 0 -11 4.5t-13.5 14.5t-11.5 25t-5 35q0 34 9 78.5t23 93t30 97.5t30 91.5t23 75.5t9 49q0 6 -2 10q1 16 4.5 25.5t26.5 9.5z" />
    <glyph glyph-name="quoteright" unicode="&#x2019;" horiz-adv-x="99" 
d="M62 454q9 -4 4 -21t-14.5 -36t-18 -35t-6.5 -18q-5 0 -5 5q-2 5 2.5 20.5t10.5 32t10.5 30t2.5 15.5q1 2 2 3.5t12 3.5z" />
    <glyph glyph-name="space" unicode=" " horiz-adv-x="150" 
 />
    <glyph glyph-name="quotesingle" unicode="'" horiz-adv-x="81" 
d="M111 425q8 -3 7 -15t-6.5 -28t-14.5 -34t-17 -33.5t-13.5 -26.5t-3.5 -13q-1 1 -3.5 2t-2.5 6q-3 6 3 27t14 43.5t14 40.5t4 20q2 3 3.5 6t15.5 5z" />
    <glyph glyph-name="period" unicode="." horiz-adv-x="95" 
d="M41 18q12 0 13 -8t-3.5 -17.5t-13 -17t-14.5 -7.5q-7 1 -8.5 6.5t-1 12t3 13t3.5 9.5q2 3 4 5.5t17 3.5z" />
    <glyph glyph-name="comma" unicode="," horiz-adv-x="110" 
d="M68 46q11 -6 2 -28t-24 -47t-29 -45.5t-12 -23.5q-1 0 -3.5 1.5t-1.5 6.5q-2 7 5.5 27t17.5 41.5t18 39t6 19.5q2 3 4 5.5t17 3.5z" />
    <glyph glyph-name="exclam" unicode="!" horiz-adv-x="225" 
d="M155 549q17 -3 17 -39q0 -27 -8.5 -69t-21.5 -88.5t-28 -93t-27.5 -83.5t-21 -60.5t-7.5 -23.5q-7 2 -7 13q0 12 5.5 41t14.5 66.5t18.5 80.5t18.5 83.5t14.5 74t5.5 53.5q0 13 -2 16q0 6 0.5 11t3 8.5t8 6t17.5 3.5zM53 71q5 -1 9 -4.5t4 -6.5q0 -8 -1.5 -19t-4.5 -20.5
t-7.5 -16.5t-10.5 -7q-8 0 -14 3t-6 8q0 10 1.5 21t5.5 20.5t9.5 15.5t14.5 6z" />
    <glyph glyph-name="question" unicode="?" horiz-adv-x="306" 
d="M268 546q14 -4 14 -31q0 -25 -10.5 -65t-26.5 -86.5t-35 -93.5t-35 -85.5t-27.5 -62.5l-11.5 -24q-6 1 -6 12q0 2 5 25.5t21 77.5q-18 -9 -37 -9q-26 0 -41 10.5t-23 25.5t-11 32t-4 31q-2 20 3.5 33t5.5 15q5 -1 4 -10.5t-1 -22.5h1q0 -1 -1 0t-1 -1q0 -6 3.5 -21
t11 -30t19.5 -26t29 -11q24 0 42 23t30.5 56.5t19 71t6.5 67.5v22.5t-1 23.5l-10 -1q-66 -22 -99 -52.5t-43 -69.5q-8 -31 -4.5 -60t10 -51t12 -34.5t1.5 -9.5q-10 7 -20 15t-17.5 23t-11.5 38.5t-2 60.5q1 21 11 51t32.5 58.5t58.5 50t89 25.5l12 1l2 -2l-4 4q0 -1 2 -2
l3 -3t5 -4q2 7 7.5 11t22.5 4zM130 77q6 -2 9.5 -5.5t3.5 -6.5q0 -8 -2.5 -18.5t-6.5 -20t-9 -16t-10 -6.5q-8 0 -14 4t-6 8q0 23 11 42t24 19z" />
    <glyph glyph-name="agrave" unicode="&#xe0;" horiz-adv-x="291" 
d="M260 13q-3 -4 -15.5 -14t-29.5 -10q-16 0 -27.5 12t-16.5 26q-12 -13 -34 -26t-54 -13q-20 0 -35 8t-25.5 20.5t-16 29t-5.5 34.5q0 31 9.5 62.5t27.5 57.5t44.5 42.5t60.5 16.5q23 0 37 -5.5t18 -8.5q0 9 3.5 14.5t19.5 5.5q10 0 13.5 -3t3.5 -17q0 -12 -5 -30t-11 -40
t-12 -47.5t-8 -52.5q0 -4 -0.5 -8t-0.5 -8q0 -15 4 -28t12 -14q14 -2 27 8t23.5 22.5t18.5 23t14 10.5q2 0 3 -3t1 -5q0 -3 -5 -10v1q-3 -4 -12 -17.5t-27 -33.5zM165 71q-2 39 5 75t19 59q-8 4 -19.5 7t-26.5 3q-23 0 -42.5 -14t-34.5 -35t-23.5 -45.5t-8.5 -45.5
q0 -27 19 -44t43 -17q20 0 40 11.5t30 22.5q-1 6 -1 11.5v11.5zM211 323v-1q0 -3 -7.5 -4.5t-18.5 -1.5t-24 1.5t-24 4.5t-18 8t-7 11q0 7 3 12t6.5 8t6 4t0.5 1q1 0 1.5 -0.5t1.5 -0.5q2 -3 12.5 -8.5t23 -11t24 -9.5t15.5 -4h1q4 0 4 -9z" />
    <glyph glyph-name="aacute" unicode="&#xe1;" horiz-adv-x="291" 
d="M260 13q-3 -4 -15.5 -14t-29.5 -10q-16 0 -27.5 12t-16.5 26q-12 -13 -34 -26t-54 -13q-20 0 -35 8t-25.5 20.5t-16 29t-5.5 34.5q0 31 9.5 62.5t27.5 57.5t44.5 42.5t60.5 16.5q23 0 37 -5.5t18 -8.5q0 9 3.5 14.5t19.5 5.5q10 0 13.5 -3t3.5 -17q0 -12 -5 -30t-11 -40
t-12 -47.5t-8 -52.5q0 -4 -0.5 -8t-0.5 -8q0 -15 4 -28t12 -14q14 -2 27 8t23.5 22.5t18.5 23t14 10.5q2 0 3 -3t1 -5q0 -3 -5 -10v1q-3 -4 -12 -17.5t-27 -33.5zM165 71q-2 39 5 75t19 59q-8 4 -19.5 7t-26.5 3q-23 0 -42.5 -14t-34.5 -35t-23.5 -45.5t-8.5 -45.5
q0 -27 19 -44t43 -17q20 0 40 11.5t30 22.5q-1 6 -1 11.5v11.5zM116 323q0 6 10 9.5t23.5 8t26.5 10t20 14.5q1 0 2 1h-1q0 -1 9 -6t9 -19q0 -6 -7.5 -11t-18.5 -8t-23.5 -4.5t-23.5 -1.5q-12 0 -20 1.5t-6 5.5z" />
    <glyph glyph-name="acircumflex" unicode="&#xe2;" horiz-adv-x="291" 
d="M260 13q-3 -4 -15.5 -14t-29.5 -10q-16 0 -27.5 12t-16.5 26q-12 -13 -34 -26t-54 -13q-20 0 -35 8t-25.5 20.5t-16 29t-5.5 34.5q0 31 9.5 62.5t27.5 57.5t44.5 42.5t60.5 16.5q23 0 37 -5.5t18 -8.5q0 9 3.5 14.5t19.5 5.5q10 0 13.5 -3t3.5 -17q0 -12 -5 -30t-11 -40
t-12 -47.5t-8 -52.5q0 -4 -0.5 -8t-0.5 -8q0 -15 4 -28t12 -14q14 -2 27 8t23.5 22.5t18.5 23t14 10.5q2 0 3 -3t1 -5q0 -3 -5 -10v1q-3 -4 -12 -17.5t-27 -33.5zM165 71q-2 39 5 75t19 59q-8 4 -19.5 7t-26.5 3q-23 0 -42.5 -14t-34.5 -35t-23.5 -45.5t-8.5 -45.5
q0 -27 19 -44t43 -17q20 0 40 11.5t30 22.5q-1 6 -1 11.5v11.5zM165 362q9 -2 21.5 -10.5t25 -18t22.5 -17t13 -6.5q0 -8 -5 -8h1q-4 -2 -7 -2q-6 0 -15.5 2.5t-20 6.5t-21 8.5t-17.5 8.5q-12 -5 -28.5 -8t-30.5 -3q-11 0 -18.5 2t-7.5 5q0 10 4 10q2 -1 13.5 3t24.5 9.5
t24.5 11.5t13.5 9q1 0 1 0.5t1 0.5q2 0 6 -4z" />
    <glyph glyph-name="atilde" unicode="&#xe3;" horiz-adv-x="291" 
d="M260 13q-3 -4 -15.5 -14t-29.5 -10q-16 0 -27.5 12t-16.5 26q-12 -13 -34 -26t-54 -13q-20 0 -35 8t-25.5 20.5t-16 29t-5.5 34.5q0 31 9.5 62.5t27.5 57.5t44.5 42.5t60.5 16.5q23 0 37 -5.5t18 -8.5q0 9 3.5 14.5t19.5 5.5q10 0 13.5 -3t3.5 -17q0 -12 -5 -30t-11 -40
t-12 -47.5t-8 -52.5q0 -4 -0.5 -8t-0.5 -8q0 -15 4 -28t12 -14q14 -2 27 8t23.5 22.5t18.5 23t14 10.5q2 0 3 -3t1 -5q0 -3 -5 -10v1q-3 -4 -12 -17.5t-27 -33.5zM165 71q-2 39 5 75t19 59q-8 4 -19.5 7t-26.5 3q-23 0 -42.5 -14t-34.5 -35t-23.5 -45.5t-8.5 -45.5
q0 -27 19 -44t43 -17q20 0 40 11.5t30 22.5q-1 6 -1 11.5v11.5zM108 361q2 6 11.5 10t20.5 4q12 0 19.5 -5.5t13 -12.5t9 -12.5t7.5 -5.5q5 0 6 1t2 2.5t3 3t10 1.5q2 0 10.5 0.5t8.5 -9.5q0 -8 -9 -20.5t-27 -12.5q-17 0 -25.5 7.5t-14 16t-8.5 16t-8 7.5q-6 0 -12 -4.5
t-11 -10t-8.5 -10.5t-3.5 -7q0 -1 1 -1q-8 0 -8 9v-1q0 3 2 13t11 21z" />
    <glyph glyph-name="adieresis" unicode="&#xe4;" horiz-adv-x="291" 
d="M260 13q-3 -4 -15.5 -14t-29.5 -10q-16 0 -27.5 12t-16.5 26q-12 -13 -34 -26t-54 -13q-20 0 -35 8t-25.5 20.5t-16 29t-5.5 34.5q0 31 9.5 62.5t27.5 57.5t44.5 42.5t60.5 16.5q23 0 37 -5.5t18 -8.5q0 9 3.5 14.5t19.5 5.5q10 0 13.5 -3t3.5 -17q0 -12 -5 -30t-11 -40
t-12 -47.5t-8 -52.5q0 -4 -0.5 -8t-0.5 -8q0 -15 4 -28t12 -14q14 -2 27 8t23.5 22.5t18.5 23t14 10.5q2 0 3 -3t1 -5q0 -3 -5 -10v1q-3 -4 -12 -17.5t-27 -33.5zM165 71q-2 39 5 75t19 59q-8 4 -19.5 7t-26.5 3q-23 0 -42.5 -14t-34.5 -35t-23.5 -45.5t-8.5 -45.5
q0 -27 19 -44t43 -17q20 0 40 11.5t30 22.5q-1 6 -1 11.5v11.5zM148 313q0 -3 -2 -3q-9 1 -15 4q-6 2 -10.5 5t-4.5 7t3 10t7 11t7 9.5t3 7.5q2 0 3 0.5t2 0.5q9 0 9 -34v-11t-2 -7zM208 363q2 0 3.5 -10.5t1.5 -21.5q0 -21 -4 -21q-9 1 -15 4q-6 2 -10.5 5t-4.5 7t3 10
t7 11t7 9.5t3 7.5q2 0 3 0.5t2 0.5q2 0 4 -2z" />
    <glyph glyph-name="egrave" unicode="&#xe8;" horiz-adv-x="256" 
d="M255 121q1 -1 1 -4q0 -9 -21.5 -29.5t-52.5 -41.5t-64 -37t-57 -16t-43 16t-19 64q0 42 15.5 76t37.5 58.5t46.5 38t42.5 14.5q10 0 22.5 -2t23.5 -8.5t18.5 -18t7.5 -29.5q0 -28 -13.5 -48t-33 -33t-40 -19.5t-33.5 -6.5q-14 0 -26 3t-22 8q-8 -24 -8 -46q0 -18 5 -28
t21 -10q11 0 23 3t23 8q36 15 62.5 31t44.5 29.5t27.5 21.5t11.5 6zM111 204q-17 -9 -33 -31t-27 -50q10 -2 18 -2q19 0 37 8t32 20t22.5 25.5t8.5 24.5t-6 13.5t-17 2.5q-16 0 -35 -11zM193 323v-1q0 -3 -7.5 -4.5t-18.5 -1.5t-24 1.5t-24 4.5t-18 8t-7 11q0 7 3 12t6.5 8
t6 4t0.5 1q1 0 1.5 -0.5t1.5 -0.5q2 -3 12.5 -8.5t23 -11t24 -9.5t15.5 -4h1q4 0 4 -9z" />
    <glyph glyph-name="eacute" unicode="&#xe9;" horiz-adv-x="256" 
d="M255 121q1 -1 1 -4q0 -9 -21.5 -29.5t-52.5 -41.5t-64 -37t-57 -16t-43 16t-19 64q0 42 15.5 76t37.5 58.5t46.5 38t42.5 14.5q10 0 22.5 -2t23.5 -8.5t18.5 -18t7.5 -29.5q0 -28 -13.5 -48t-33 -33t-40 -19.5t-33.5 -6.5q-14 0 -26 3t-22 8q-8 -24 -8 -46q0 -18 5 -28
t21 -10q11 0 23 3t23 8q36 15 62.5 31t44.5 29.5t27.5 21.5t11.5 6zM111 204q-17 -9 -33 -31t-27 -50q10 -2 18 -2q19 0 37 8t32 20t22.5 25.5t8.5 24.5t-6 13.5t-17 2.5q-16 0 -35 -11zM98 323q0 6 10 9.5t23.5 8t26.5 10t20 14.5q1 0 2 1h-1q0 -1 9 -6t9 -19
q0 -6 -7.5 -11t-18.5 -8t-23.5 -4.5t-23.5 -1.5q-12 0 -20 1.5t-6 5.5z" />
    <glyph glyph-name="ecircumflex" unicode="&#xea;" horiz-adv-x="256" 
d="M255 121q1 -1 1 -4q0 -9 -21.5 -29.5t-52.5 -41.5t-64 -37t-57 -16t-43 16t-19 64q0 42 15.5 76t37.5 58.5t46.5 38t42.5 14.5q10 0 22.5 -2t23.5 -8.5t18.5 -18t7.5 -29.5q0 -28 -13.5 -48t-33 -33t-40 -19.5t-33.5 -6.5q-14 0 -26 3t-22 8q-8 -24 -8 -46q0 -18 5 -28
t21 -10q11 0 23 3t23 8q36 15 62.5 31t44.5 29.5t27.5 21.5t11.5 6zM111 204q-17 -9 -33 -31t-27 -50q10 -2 18 -2q19 0 37 8t32 20t22.5 25.5t8.5 24.5t-6 13.5t-17 2.5q-16 0 -35 -11zM148 362q9 -2 21.5 -10.5t25 -18t22.5 -17t13 -6.5q0 -8 -5 -8h1q-4 -2 -7 -2
q-6 0 -15.5 2.5t-20 6.5t-21 8.5t-17.5 8.5q-12 -5 -28.5 -8t-30.5 -3q-11 0 -18.5 2t-7.5 5q0 10 4 10q2 -1 13.5 3t24.5 9.5t24.5 11.5t13.5 9q1 0 1 0.5t1 0.5q2 0 6 -4z" />
    <glyph glyph-name="edieresis" unicode="&#xeb;" horiz-adv-x="256" 
d="M255 121q1 -1 1 -4q0 -9 -21.5 -29.5t-52.5 -41.5t-64 -37t-57 -16t-43 16t-19 64q0 42 15.5 76t37.5 58.5t46.5 38t42.5 14.5q10 0 22.5 -2t23.5 -8.5t18.5 -18t7.5 -29.5q0 -28 -13.5 -48t-33 -33t-40 -19.5t-33.5 -6.5q-14 0 -26 3t-22 8q-8 -24 -8 -46q0 -18 5 -28
t21 -10q11 0 23 3t23 8q36 15 62.5 31t44.5 29.5t27.5 21.5t11.5 6zM111 204q-17 -9 -33 -31t-27 -50q10 -2 18 -2q19 0 37 8t32 20t22.5 25.5t8.5 24.5t-6 13.5t-17 2.5q-16 0 -35 -11zM130 313q0 -3 -2 -3q-9 1 -15 4q-6 2 -10.5 5t-4.5 7t3 10t7 11t7 9.5t3 7.5
q2 0 3 0.5t2 0.5q9 0 9 -34v-11t-2 -7zM190 363q2 0 3.5 -10.5t1.5 -21.5q0 -21 -4 -21q-9 1 -15 4q-6 2 -10.5 5t-4.5 7t3 10t7 11t7 9.5t3 7.5q2 0 3 0.5t2 0.5q2 0 4 -2z" />
    <glyph glyph-name="ntilde" unicode="&#xf1;" horiz-adv-x="285" 
d="M294 79q3 -3 3 -7t-5 -11l-7 -11t-19 -24.5t-27.5 -25t-32.5 -11.5q-19 0 -29.5 9t-16 22t-6.5 26t-1 22q3 33 9 62t11.5 52t10 38.5t4.5 20.5q-3 0 -7 -2q-79 -25 -122 -91q-8 -25 -17 -50t-16.5 -46.5t-12.5 -37t-5 -21.5q0 -3 1 -3q-5 0 -9 5.5t-4 19.5q0 19 6 53.5
t13.5 70.5t14 65.5t6.5 40.5q0 4 -0.5 7.5t2 6t8.5 4.5t19 3q13 -3 13 -27q0 -10 -2 -22.5t-5 -26.5q28 30 66.5 49.5t76.5 19.5q5 0 9.5 -3t4.5 -15t-3.5 -31t-9 -42t-12 -48t-12.5 -49q-1 -5 -1.5 -9t-0.5 -9q0 -14 4 -24.5t12 -11.5q18 -2 33 7.5t27 21.5t19.5 22t9.5 11
zM88 361q2 6 11.5 10t20.5 4q12 0 19.5 -5.5t13 -12.5t9 -12.5t7.5 -5.5q5 0 6 1t2 2.5t3 3t10 1.5q2 0 10.5 0.5t8.5 -9.5q0 -8 -9 -20.5t-27 -12.5q-17 0 -25.5 7.5t-14 16t-8.5 16t-8 7.5q-6 0 -12 -4.5t-11 -10t-8.5 -10.5t-3.5 -7q0 -1 1 -1q-8 0 -8 9v-1q0 3 2 13
t11 21z" />
    <glyph glyph-name="ograve" unicode="&#xf2;" 
d="M297 164q1 -1 1 -3q0 -3 -6 -13.5t-18 -23t-30 -24t-43 -15.5q-6 -14 -18.5 -30.5t-29 -31t-37 -24.5t-43.5 -10q-28 0 -44.5 14.5t-25.5 34t-11.5 39t-2.5 28.5q0 17 3 32t8 29q12 40 29 62t32.5 32t26.5 12t12 2q9 0 15 -4.5t6 -13.5q0 -5 -1 -8q0 -1 -14 -8t-30.5 -24
t-30 -46t-13.5 -72q0 -26 10 -47t36 -23q28 3 50 18.5t38 37.5q-30 5 -49 30.5t-19 55.5q0 21 6.5 38t15.5 30t19.5 20t18.5 7q12 0 23 -8t19.5 -22t13 -32.5t4.5 -39.5q0 -20 -4 -37q23 10 33.5 19t15 15t6.5 9.5t9 3.5t19 -9zM184 117q10 24 10 51q0 11 -1.5 24.5t-6 25.5
t-12 20.5t-18.5 8.5q-6 0 -12 -7t-10.5 -17t-7 -21.5t-2.5 -21.5q0 -24 14.5 -44t38.5 -20q2 0 3.5 0.5t3.5 0.5zM175 323v-1q0 -3 -7.5 -4.5t-18.5 -1.5t-24 1.5t-24 4.5t-18 8t-7 11q0 7 3 12t6.5 8t6 4t0.5 1q1 0 1.5 -0.5t1.5 -0.5q2 -3 12.5 -8.5t23 -11t24 -9.5
t15.5 -4h1q4 0 4 -9z" />
    <glyph glyph-name="oacute" unicode="&#xf3;" 
d="M297 164q1 -1 1 -3q0 -3 -6 -13.5t-18 -23t-30 -24t-43 -15.5q-6 -14 -18.5 -30.5t-29 -31t-37 -24.5t-43.5 -10q-28 0 -44.5 14.5t-25.5 34t-11.5 39t-2.5 28.5q0 17 3 32t8 29q12 40 29 62t32.5 32t26.5 12t12 2q9 0 15 -4.5t6 -13.5q0 -5 -1 -8q0 -1 -14 -8t-30.5 -24
t-30 -46t-13.5 -72q0 -26 10 -47t36 -23q28 3 50 18.5t38 37.5q-30 5 -49 30.5t-19 55.5q0 21 6.5 38t15.5 30t19.5 20t18.5 7q12 0 23 -8t19.5 -22t13 -32.5t4.5 -39.5q0 -20 -4 -37q23 10 33.5 19t15 15t6.5 9.5t9 3.5t19 -9zM184 117q10 24 10 51q0 11 -1.5 24.5t-6 25.5
t-12 20.5t-18.5 8.5q-6 0 -12 -7t-10.5 -17t-7 -21.5t-2.5 -21.5q0 -24 14.5 -44t38.5 -20q2 0 3.5 0.5t3.5 0.5zM77 323q0 6 10 9.5t23.5 8t26.5 10t20 14.5q1 0 2 1h-1q0 -1 9 -6t9 -19q0 -6 -7.5 -11t-18.5 -8t-23.5 -4.5t-23.5 -1.5q-12 0 -20 1.5t-6 5.5z" />
    <glyph glyph-name="ocircumflex" unicode="&#xf4;" 
d="M297 164q1 -1 1 -3q0 -3 -6 -13.5t-18 -23t-30 -24t-43 -15.5q-6 -14 -18.5 -30.5t-29 -31t-37 -24.5t-43.5 -10q-28 0 -44.5 14.5t-25.5 34t-11.5 39t-2.5 28.5q0 17 3 32t8 29q12 40 29 62t32.5 32t26.5 12t12 2q9 0 15 -4.5t6 -13.5q0 -5 -1 -8q0 -1 -14 -8t-30.5 -24
t-30 -46t-13.5 -72q0 -26 10 -47t36 -23q28 3 50 18.5t38 37.5q-30 5 -49 30.5t-19 55.5q0 21 6.5 38t15.5 30t19.5 20t18.5 7q12 0 23 -8t19.5 -22t13 -32.5t4.5 -39.5q0 -20 -4 -37q23 10 33.5 19t15 15t6.5 9.5t9 3.5t19 -9zM184 117q10 24 10 51q0 11 -1.5 24.5t-6 25.5
t-12 20.5t-18.5 8.5q-6 0 -12 -7t-10.5 -17t-7 -21.5t-2.5 -21.5q0 -24 14.5 -44t38.5 -20q2 0 3.5 0.5t3.5 0.5zM129 362q9 -2 21.5 -10.5t25 -18t22.5 -17t13 -6.5q0 -8 -5 -8h1q-4 -2 -7 -2q-6 0 -15.5 2.5t-20 6.5t-21 8.5t-17.5 8.5q-12 -5 -28.5 -8t-30.5 -3
q-11 0 -18.5 2t-7.5 5q0 10 4 10q2 -1 13.5 3t24.5 9.5t24.5 11.5t13.5 9q1 0 1 0.5t1 0.5q2 0 6 -4z" />
    <glyph glyph-name="otilde" unicode="&#xf5;" 
d="M297 164q1 -1 1 -3q0 -3 -6 -13.5t-18 -23t-30 -24t-43 -15.5q-6 -14 -18.5 -30.5t-29 -31t-37 -24.5t-43.5 -10q-28 0 -44.5 14.5t-25.5 34t-11.5 39t-2.5 28.5q0 17 3 32t8 29q12 40 29 62t32.5 32t26.5 12t12 2q9 0 15 -4.5t6 -13.5q0 -5 -1 -8q0 -1 -14 -8t-30.5 -24
t-30 -46t-13.5 -72q0 -26 10 -47t36 -23q28 3 50 18.5t38 37.5q-30 5 -49 30.5t-19 55.5q0 21 6.5 38t15.5 30t19.5 20t18.5 7q12 0 23 -8t19.5 -22t13 -32.5t4.5 -39.5q0 -20 -4 -37q23 10 33.5 19t15 15t6.5 9.5t9 3.5t19 -9zM184 117q10 24 10 51q0 11 -1.5 24.5t-6 25.5
t-12 20.5t-18.5 8.5q-6 0 -12 -7t-10.5 -17t-7 -21.5t-2.5 -21.5q0 -24 14.5 -44t38.5 -20q2 0 3.5 0.5t3.5 0.5zM72 361q2 6 11.5 10t20.5 4q12 0 19.5 -5.5t13 -12.5t9 -12.5t7.5 -5.5q5 0 6 1t2 2.5t3 3t10 1.5q2 0 10.5 0.5t8.5 -9.5q0 -8 -9 -20.5t-27 -12.5
q-17 0 -25.5 7.5t-14 16t-8.5 16t-8 7.5q-6 0 -12 -4.5t-11 -10t-8.5 -10.5t-3.5 -7q0 -1 1 -1q-8 0 -8 9v-1q0 3 2 13t11 21z" />
    <glyph glyph-name="odieresis" unicode="&#xf6;" 
d="M297 164q1 -1 1 -3q0 -3 -6 -13.5t-18 -23t-30 -24t-43 -15.5q-6 -14 -18.5 -30.5t-29 -31t-37 -24.5t-43.5 -10q-28 0 -44.5 14.5t-25.5 34t-11.5 39t-2.5 28.5q0 17 3 32t8 29q12 40 29 62t32.5 32t26.5 12t12 2q9 0 15 -4.5t6 -13.5q0 -5 -1 -8q0 -1 -14 -8t-30.5 -24
t-30 -46t-13.5 -72q0 -26 10 -47t36 -23q28 3 50 18.5t38 37.5q-30 5 -49 30.5t-19 55.5q0 21 6.5 38t15.5 30t19.5 20t18.5 7q12 0 23 -8t19.5 -22t13 -32.5t4.5 -39.5q0 -20 -4 -37q23 10 33.5 19t15 15t6.5 9.5t9 3.5t19 -9zM184 117q10 24 10 51q0 11 -1.5 24.5t-6 25.5
t-12 20.5t-18.5 8.5q-6 0 -12 -7t-10.5 -17t-7 -21.5t-2.5 -21.5q0 -24 14.5 -44t38.5 -20q2 0 3.5 0.5t3.5 0.5zM109 313q0 -3 -2 -3q-9 1 -15 4q-6 2 -10.5 5t-4.5 7t3 10t7 11t7 9.5t3 7.5q2 0 3 0.5t2 0.5q9 0 9 -34v-11t-2 -7zM169 363q2 0 3.5 -10.5t1.5 -21.5
q0 -21 -4 -21q-9 1 -15 4q-6 2 -10.5 5t-4.5 7t3 10t7 11t7 9.5t3 7.5q2 0 3 0.5t2 0.5q2 0 4 -2z" />
    <glyph glyph-name="ugrave" unicode="&#xf9;" horiz-adv-x="280" 
d="M297 79q3 -3 3 -7t-5 -11l-7 -11t-19 -24.5t-28 -25t-34 -11.5q-12 0 -21 6t-15 14t-9.5 17.5t-4.5 17.5q-5 -5 -14 -14.5t-22 -18.5t-29.5 -16t-36.5 -7q-14 0 -24 7t-17 16.5t-10.5 21t-3.5 20.5q1 36 6 68t11 57t11 42t5 23q0 10 3.5 16t20.5 6q9 0 12.5 -3t3.5 -16
q0 -14 -4 -34.5t-9.5 -45.5t-12 -52t-10.5 -54q-1 -5 -1 -13q0 -15 8 -21t20 -6t25.5 5t26 12t23 14.5t17.5 13.5q-1 2 -1 6q3 33 9 62.5t12 52.5t10.5 39t4.5 21q1 9 3.5 14t19.5 5q9 0 13 -3t4 -16t-3.5 -32t-9.5 -42.5t-12.5 -48.5t-12.5 -50q-1 -5 -1.5 -9t-0.5 -9
q0 -14 4 -25.5t13 -13.5q11 -2 25.5 7.5t27.5 22t23 23t13 10.5zM189 323v-1q0 -3 -7.5 -4.5t-18.5 -1.5t-24 1.5t-24 4.5t-18 8t-7 11q0 7 3 12t6.5 8t6 4t0.5 1q1 0 1.5 -0.5t1.5 -0.5q2 -3 12.5 -8.5t23 -11t24 -9.5t15.5 -4h1q4 0 4 -9z" />
    <glyph glyph-name="uacute" unicode="&#xfa;" horiz-adv-x="280" 
d="M297 79q3 -3 3 -7t-5 -11l-7 -11t-19 -24.5t-28 -25t-34 -11.5q-12 0 -21 6t-15 14t-9.5 17.5t-4.5 17.5q-5 -5 -14 -14.5t-22 -18.5t-29.5 -16t-36.5 -7q-14 0 -24 7t-17 16.5t-10.5 21t-3.5 20.5q1 36 6 68t11 57t11 42t5 23q0 10 3.5 16t20.5 6q9 0 12.5 -3t3.5 -16
q0 -14 -4 -34.5t-9.5 -45.5t-12 -52t-10.5 -54q-1 -5 -1 -13q0 -15 8 -21t20 -6t25.5 5t26 12t23 14.5t17.5 13.5q-1 2 -1 6q3 33 9 62.5t12 52.5t10.5 39t4.5 21q1 9 3.5 14t19.5 5q9 0 13 -3t4 -16t-3.5 -32t-9.5 -42.5t-12.5 -48.5t-12.5 -50q-1 -5 -1.5 -9t-0.5 -9
q0 -14 4 -25.5t13 -13.5q11 -2 25.5 7.5t27.5 22t23 23t13 10.5zM91 323q0 6 10 9.5t23.5 8t26.5 10t20 14.5q1 0 2 1h-1q0 -1 9 -6t9 -19q0 -6 -7.5 -11t-18.5 -8t-23.5 -4.5t-23.5 -1.5q-12 0 -20 1.5t-6 5.5z" />
    <glyph glyph-name="ucircumflex" unicode="&#xfb;" horiz-adv-x="280" 
d="M297 79q3 -3 3 -7t-5 -11l-7 -11t-19 -24.5t-28 -25t-34 -11.5q-12 0 -21 6t-15 14t-9.5 17.5t-4.5 17.5q-5 -5 -14 -14.5t-22 -18.5t-29.5 -16t-36.5 -7q-14 0 -24 7t-17 16.5t-10.5 21t-3.5 20.5q1 36 6 68t11 57t11 42t5 23q0 10 3.5 16t20.5 6q9 0 12.5 -3t3.5 -16
q0 -14 -4 -34.5t-9.5 -45.5t-12 -52t-10.5 -54q-1 -5 -1 -13q0 -15 8 -21t20 -6t25.5 5t26 12t23 14.5t17.5 13.5q-1 2 -1 6q3 33 9 62.5t12 52.5t10.5 39t4.5 21q1 9 3.5 14t19.5 5q9 0 13 -3t4 -16t-3.5 -32t-9.5 -42.5t-12.5 -48.5t-12.5 -50q-1 -5 -1.5 -9t-0.5 -9
q0 -14 4 -25.5t13 -13.5q11 -2 25.5 7.5t27.5 22t23 23t13 10.5zM143 362q9 -2 21.5 -10.5t25 -18t22.5 -17t13 -6.5q0 -8 -5 -8h1q-4 -2 -7 -2q-6 0 -15.5 2.5t-20 6.5t-21 8.5t-17.5 8.5q-12 -5 -28.5 -8t-30.5 -3q-11 0 -18.5 2t-7.5 5q0 10 4 10q2 -1 13.5 3t24.5 9.5
t24.5 11.5t13.5 9q1 0 1 0.5t1 0.5q2 0 6 -4z" />
    <glyph glyph-name="udieresis" unicode="&#xfc;" horiz-adv-x="280" 
d="M297 79q3 -3 3 -7t-5 -11l-7 -11t-19 -24.5t-28 -25t-34 -11.5q-12 0 -21 6t-15 14t-9.5 17.5t-4.5 17.5q-5 -5 -14 -14.5t-22 -18.5t-29.5 -16t-36.5 -7q-14 0 -24 7t-17 16.5t-10.5 21t-3.5 20.5q1 36 6 68t11 57t11 42t5 23q0 10 3.5 16t20.5 6q9 0 12.5 -3t3.5 -16
q0 -14 -4 -34.5t-9.5 -45.5t-12 -52t-10.5 -54q-1 -5 -1 -13q0 -15 8 -21t20 -6t25.5 5t26 12t23 14.5t17.5 13.5q-1 2 -1 6q3 33 9 62.5t12 52.5t10.5 39t4.5 21q1 9 3.5 14t19.5 5q9 0 13 -3t4 -16t-3.5 -32t-9.5 -42.5t-12.5 -48.5t-12.5 -50q-1 -5 -1.5 -9t-0.5 -9
q0 -14 4 -25.5t13 -13.5q11 -2 25.5 7.5t27.5 22t23 23t13 10.5zM123 313q0 -3 -2 -3q-9 1 -15 4q-6 2 -10.5 5t-4.5 7t3 10t7 11t7 9.5t3 7.5q2 0 3 0.5t2 0.5q9 0 9 -34v-11t-2 -7zM183 363q2 0 3.5 -10.5t1.5 -21.5q0 -21 -4 -21q-9 1 -15 4q-6 2 -10.5 5t-4.5 7t3 10
t7 11t7 9.5t3 7.5q2 0 3 0.5t2 0.5q2 0 4 -2z" />
    <glyph glyph-name="yacute" unicode="&#xfd;" horiz-adv-x="287" 
d="M291 67l-7 -12.5t-19 -27.5t-28 -27t-34 -12q-7 0 -11 1q-2 -11 -4.5 -21t-5.5 -21l14 -12q-1 -1 -5 -1q-5 0 -12 3q-7 -23 -21 -51t-35 -52.5t-48.5 -41t-61.5 -16.5q-20 0 -34 8t-23 20t-13 26.5t-4 28.5q0 25 8 47.5t21 40.5t30.5 30.5t36.5 17.5q-16 9 -24 26.5
t-8 31.5q1 36 6.5 68t11.5 57t10.5 42t4.5 23q0 10 3.5 16t20.5 6q9 0 12.5 -3t3.5 -16q0 -14 -4 -34.5t-9.5 -45.5t-12 -52t-10.5 -54q-1 -4 -1 -12q0 -15 8 -21.5t20 -6.5q13 0 26 5t25 12t22 14.5t18 12.5q7 65 13 104.5t12.5 61t13.5 28.5t16 7q3 0 9 -0.5t6 -11.5
q0 -20 -9.5 -78.5t-20.5 -139.5q-2 -18 4.5 -21t16.5 2q14 5 26 15.5t20.5 21t14 18.5t7.5 8t3.5 -3.5t1.5 -5.5t-1 -3zM40 -180q45 17 67.5 55t33.5 83q-12 6 -30 12t-38 6q-42 0 -71.5 -27.5t-29.5 -81.5q0 -23 9 -39.5t29 -16.5q12 0 30 9zM144 -26q3 16 5.5 32t4.5 32
q-11 -9 -27 -22.5t-38 -21.5q17 -4 30.5 -9t24.5 -11zM95 323q0 6 10 9.5t23.5 8t26.5 10t20 14.5q1 0 2 1h-1q0 -1 9 -6t9 -19q0 -6 -7.5 -11t-18.5 -8t-23.5 -4.5t-23.5 -1.5q-12 0 -20 1.5t-6 5.5z" />
    <glyph glyph-name="ydieresis" unicode="&#xff;" horiz-adv-x="287" 
d="M291 67l-7 -12.5t-19 -27.5t-28 -27t-34 -12q-7 0 -11 1q-2 -11 -4.5 -21t-5.5 -21l14 -12q-1 -1 -5 -1q-5 0 -12 3q-7 -23 -21 -51t-35 -52.5t-48.5 -41t-61.5 -16.5q-20 0 -34 8t-23 20t-13 26.5t-4 28.5q0 25 8 47.5t21 40.5t30.5 30.5t36.5 17.5q-16 9 -24 26.5
t-8 31.5q1 36 6.5 68t11.5 57t10.5 42t4.5 23q0 10 3.5 16t20.5 6q9 0 12.5 -3t3.5 -16q0 -14 -4 -34.5t-9.5 -45.5t-12 -52t-10.5 -54q-1 -4 -1 -12q0 -15 8 -21.5t20 -6.5q13 0 26 5t25 12t22 14.5t18 12.5q7 65 13 104.5t12.5 61t13.5 28.5t16 7q3 0 9 -0.5t6 -11.5
q0 -20 -9.5 -78.5t-20.5 -139.5q-2 -18 4.5 -21t16.5 2q14 5 26 15.5t20.5 21t14 18.5t7.5 8t3.5 -3.5t1.5 -5.5t-1 -3zM40 -180q45 17 67.5 55t33.5 83q-12 6 -30 12t-38 6q-42 0 -71.5 -27.5t-29.5 -81.5q0 -23 9 -39.5t29 -16.5q12 0 30 9zM144 -26q3 16 5.5 32t4.5 32
q-11 -9 -27 -22.5t-38 -21.5q17 -4 30.5 -9t24.5 -11zM127 313q0 -3 -2 -3q-9 1 -15 4q-6 2 -10.5 5t-4.5 7t3 10t7 11t7 9.5t3 7.5q2 0 3 0.5t2 0.5q9 0 9 -34v-11t-2 -7zM187 363q2 0 3.5 -10.5t1.5 -21.5q0 -21 -4 -21q-9 1 -15 4q-6 2 -10.5 5t-4.5 7t3 10t7 11t7 9.5
t3 7.5q2 0 3 0.5t2 0.5q2 0 4 -2z" />
    <glyph glyph-name="Agrave" unicode="&#xc0;" horiz-adv-x="402" 
d="M319 141q2 16 4.5 33t5.5 34q-18 -1 -53 -1.5t-73 -0.5h-74h-57q-11 -45 -17 -83t-9 -65t-4.5 -42.5t-3.5 -15.5q-8 0 -8 29v7.5t1 8.5v-1q1 14 3 56.5t13 105.5q-7 0 -11 4.5t-4 24.5q0 10 25 13q8 31 21 68t35 70.5t55 60.5t81 38q12 3 24 3q37 0 59 -20.5t34 -48
t15.5 -54t3.5 -38.5q0 -34 -4 -64t-8 -56q-9 -69 -17 -116t-10 -62q-3 -29 -8.5 -46t-25.5 -17q-5 0 -7 5t-2 24q0 23 4 60.5t12 85.5zM84 250q27 0 61.5 -2.5t69 -6.5t65.5 -8.5t51 -7.5q5 26 9 54t4 55q0 21 -4 41.5t-13.5 37t-24 27t-35.5 10.5q-38 0 -67.5 -20t-52 -50
t-38.5 -65t-25 -65zM337 523v-1q0 -3 -7.5 -4.5t-18.5 -1.5t-24 1.5t-24 4.5t-18 8t-7 11q0 7 3 12t6.5 8t6 4t0.5 1q1 0 1.5 -0.5t1.5 -0.5q2 -3 12.5 -8.5t23 -11t24 -9.5t15.5 -4h1q4 0 4 -9z" />
    <glyph glyph-name="Aacute" unicode="&#xc1;" horiz-adv-x="402" 
d="M319 141q2 16 4.5 33t5.5 34q-18 -1 -53 -1.5t-73 -0.5h-74h-57q-11 -45 -17 -83t-9 -65t-4.5 -42.5t-3.5 -15.5q-8 0 -8 29v7.5t1 8.5v-1q1 14 3 56.5t13 105.5q-7 0 -11 4.5t-4 24.5q0 10 25 13q8 31 21 68t35 70.5t55 60.5t81 38q12 3 24 3q37 0 59 -20.5t34 -48
t15.5 -54t3.5 -38.5q0 -34 -4 -64t-8 -56q-9 -69 -17 -116t-10 -62q-3 -29 -8.5 -46t-25.5 -17q-5 0 -7 5t-2 24q0 23 4 60.5t12 85.5zM84 250q27 0 61.5 -2.5t69 -6.5t65.5 -8.5t51 -7.5q5 26 9 54t4 55q0 21 -4 41.5t-13.5 37t-24 27t-35.5 10.5q-38 0 -67.5 -20t-52 -50
t-38.5 -65t-25 -65zM238 523q0 6 10 9.5t23.5 8t26.5 10t20 14.5q1 0 2 1h-1q0 -1 9 -6t9 -19q0 -6 -7.5 -11t-18.5 -8t-23.5 -4.5t-23.5 -1.5q-12 0 -20 1.5t-6 5.5z" />
    <glyph glyph-name="Acircumflex" unicode="&#xc2;" horiz-adv-x="402" 
d="M319 141q2 16 4.5 33t5.5 34q-18 -1 -53 -1.5t-73 -0.5h-74h-57q-11 -45 -17 -83t-9 -65t-4.5 -42.5t-3.5 -15.5q-8 0 -8 29v7.5t1 8.5v-1q1 14 3 56.5t13 105.5q-7 0 -11 4.5t-4 24.5q0 10 25 13q8 31 21 68t35 70.5t55 60.5t81 38q12 3 24 3q37 0 59 -20.5t34 -48
t15.5 -54t3.5 -38.5q0 -34 -4 -64t-8 -56q-9 -69 -17 -116t-10 -62q-3 -29 -8.5 -46t-25.5 -17q-5 0 -7 5t-2 24q0 23 4 60.5t12 85.5zM84 250q27 0 61.5 -2.5t69 -6.5t65.5 -8.5t51 -7.5q5 26 9 54t4 55q0 21 -4 41.5t-13.5 37t-24 27t-35.5 10.5q-38 0 -67.5 -20t-52 -50
t-38.5 -65t-25 -65zM292 562q9 -2 21.5 -10.5t25 -18t22.5 -17t13 -6.5q0 -8 -5 -8h1q-4 -2 -7 -2q-6 0 -15.5 2.5t-20 6.5t-21 8.5t-17.5 8.5q-12 -5 -28.5 -8t-30.5 -3q-11 0 -18.5 2t-7.5 5q0 10 4 10q2 -1 13.5 3t24.5 9.5t24.5 11.5t13.5 9q1 0 1 0.5t1 0.5q2 0 6 -4z
" />
    <glyph glyph-name="Atilde" unicode="&#xc3;" horiz-adv-x="402" 
d="M319 141q2 16 4.5 33t5.5 34q-18 -1 -53 -1.5t-73 -0.5h-74h-57q-11 -45 -17 -83t-9 -65t-4.5 -42.5t-3.5 -15.5q-8 0 -8 29v7.5t1 8.5v-1q1 14 3 56.5t13 105.5q-7 0 -11 4.5t-4 24.5q0 10 25 13q8 31 21 68t35 70.5t55 60.5t81 38q12 3 24 3q37 0 59 -20.5t34 -48
t15.5 -54t3.5 -38.5q0 -34 -4 -64t-8 -56q-9 -69 -17 -116t-10 -62q-3 -29 -8.5 -46t-25.5 -17q-5 0 -7 5t-2 24q0 23 4 60.5t12 85.5zM84 250q27 0 61.5 -2.5t69 -6.5t65.5 -8.5t51 -7.5q5 26 9 54t4 55q0 21 -4 41.5t-13.5 37t-24 27t-35.5 10.5q-38 0 -67.5 -20t-52 -50
t-38.5 -65t-25 -65zM237 561q2 6 11.5 10t20.5 4q12 0 19.5 -5.5t13 -12.5t9 -12.5t7.5 -5.5q5 0 6 1t2 2.5t3 3t10 1.5q2 0 10.5 0.5t8.5 -9.5q0 -8 -9 -20.5t-27 -12.5q-17 0 -25.5 7.5t-14 16t-8.5 16t-8 7.5q-6 0 -12 -4.5t-11 -10t-8.5 -10.5t-3.5 -7q0 -1 1 -1
q-8 0 -8 9v-1q0 3 2 13t11 21z" />
    <glyph glyph-name="Adieresis" unicode="&#xc4;" horiz-adv-x="402" 
d="M319 141q2 16 4.5 33t5.5 34q-18 -1 -53 -1.5t-73 -0.5h-74h-57q-11 -45 -17 -83t-9 -65t-4.5 -42.5t-3.5 -15.5q-8 0 -8 29v7.5t1 8.5v-1q1 14 3 56.5t13 105.5q-7 0 -11 4.5t-4 24.5q0 10 25 13q8 31 21 68t35 70.5t55 60.5t81 38q12 3 24 3q37 0 59 -20.5t34 -48
t15.5 -54t3.5 -38.5q0 -34 -4 -64t-8 -56q-9 -69 -17 -116t-10 -62q-3 -29 -8.5 -46t-25.5 -17q-5 0 -7 5t-2 24q0 23 4 60.5t12 85.5zM84 250q27 0 61.5 -2.5t69 -6.5t65.5 -8.5t51 -7.5q5 26 9 54t4 55q0 21 -4 41.5t-13.5 37t-24 27t-35.5 10.5q-38 0 -67.5 -20t-52 -50
t-38.5 -65t-25 -65zM272 513q0 -3 -2 -3q-9 1 -15 4q-6 2 -10.5 5t-4.5 7t3 10t7 11t7 9.5t3 7.5q2 0 3 0.5t2 0.5q9 0 9 -34v-11t-2 -7zM332 563q2 0 3.5 -10.5t1.5 -21.5q0 -21 -4 -21q-9 1 -15 4q-6 2 -10.5 5t-4.5 7t3 10t7 11t7 9.5t3 7.5q2 0 3 0.5t2 0.5q2 0 4 -2z
" />
    <glyph glyph-name="Egrave" unicode="&#xc8;" horiz-adv-x="417" 
d="M330 -31q-21 -16 -49 -24t-59 -8q-32 0 -66.5 11t-63 33t-46.5 56t-18 81q0 40 12.5 72t33.5 56t48.5 41t57.5 27l-6 24t-6.5 36t-3.5 40.5t3 37.5t13 28t26 11q18 0 29.5 -7.5t22.5 -12.5q26 -15 48.5 -29t40.5 -28q38 -29 64.5 -39.5t28.5 -10.5q0 -7 -15 -7
q-4 0 -12 2t-21.5 7.5t-33 15.5t-46.5 27q-11 4 -25 12t-28.5 16t-27 14t-21.5 6q-12 0 -12 -13q0 -28 7 -60.5t17 -59.5q24 3 43 3q16 0 32 -2t29 -7t21.5 -14.5t8.5 -25.5q0 -6 -4 -19t-14.5 -26t-27.5 -21t-43 -4q-28 11 -45.5 28t-27.5 39q-24 -6 -47 -21t-40.5 -36.5
t-28 -48t-10.5 -56.5q0 -38 15 -65.5t38.5 -45.5t52 -26.5t56.5 -8.5q41 0 71 13t51 33t35 43t21.5 43t10 34t2.5 16q3 4 4 -1t1 -13.5t-1 -16.5t-1 -11q-1 -6 -5 -21t-14 -35t-28 -41.5t-47 -40.5zM313 280q-5 2 -14.5 3t-21.5 1h-17.5t-19.5 -2q10 -18 17.5 -23.5
t17.5 -7.5q11 -3 19 1t13 10q6 7 10 17q-1 1 -4 1zM336 523v-1q0 -3 -7.5 -4.5t-18.5 -1.5t-24 1.5t-24 4.5t-18 8t-7 11q0 7 3 12t6.5 8t6 4t0.5 1q1 0 1.5 -0.5t1.5 -0.5q2 -3 12.5 -8.5t23 -11t24 -9.5t15.5 -4h1q4 0 4 -9z" />
    <glyph glyph-name="Eacute" unicode="&#xc9;" horiz-adv-x="417" 
d="M330 -31q-21 -16 -49 -24t-59 -8q-32 0 -66.5 11t-63 33t-46.5 56t-18 81q0 40 12.5 72t33.5 56t48.5 41t57.5 27l-6 24t-6.5 36t-3.5 40.5t3 37.5t13 28t26 11q18 0 29.5 -7.5t22.5 -12.5q26 -15 48.5 -29t40.5 -28q38 -29 64.5 -39.5t28.5 -10.5q0 -7 -15 -7
q-4 0 -12 2t-21.5 7.5t-33 15.5t-46.5 27q-11 4 -25 12t-28.5 16t-27 14t-21.5 6q-12 0 -12 -13q0 -28 7 -60.5t17 -59.5q24 3 43 3q16 0 32 -2t29 -7t21.5 -14.5t8.5 -25.5q0 -6 -4 -19t-14.5 -26t-27.5 -21t-43 -4q-28 11 -45.5 28t-27.5 39q-24 -6 -47 -21t-40.5 -36.5
t-28 -48t-10.5 -56.5q0 -38 15 -65.5t38.5 -45.5t52 -26.5t56.5 -8.5q41 0 71 13t51 33t35 43t21.5 43t10 34t2.5 16q3 4 4 -1t1 -13.5t-1 -16.5t-1 -11q-1 -6 -5 -21t-14 -35t-28 -41.5t-47 -40.5zM313 280q-5 2 -14.5 3t-21.5 1h-17.5t-19.5 -2q10 -18 17.5 -23.5
t17.5 -7.5q11 -3 19 1t13 10q6 7 10 17q-1 1 -4 1zM237 523q0 6 10 9.5t23.5 8t26.5 10t20 14.5q1 0 2 1h-1q0 -1 9 -6t9 -19q0 -6 -7.5 -11t-18.5 -8t-23.5 -4.5t-23.5 -1.5q-12 0 -20 1.5t-6 5.5z" />
    <glyph glyph-name="Ecircumflex" unicode="&#xca;" horiz-adv-x="417" 
d="M330 -31q-21 -16 -49 -24t-59 -8q-32 0 -66.5 11t-63 33t-46.5 56t-18 81q0 40 12.5 72t33.5 56t48.5 41t57.5 27l-6 24t-6.5 36t-3.5 40.5t3 37.5t13 28t26 11q18 0 29.5 -7.5t22.5 -12.5q26 -15 48.5 -29t40.5 -28q38 -29 64.5 -39.5t28.5 -10.5q0 -7 -15 -7
q-4 0 -12 2t-21.5 7.5t-33 15.5t-46.5 27q-11 4 -25 12t-28.5 16t-27 14t-21.5 6q-12 0 -12 -13q0 -28 7 -60.5t17 -59.5q24 3 43 3q16 0 32 -2t29 -7t21.5 -14.5t8.5 -25.5q0 -6 -4 -19t-14.5 -26t-27.5 -21t-43 -4q-28 11 -45.5 28t-27.5 39q-24 -6 -47 -21t-40.5 -36.5
t-28 -48t-10.5 -56.5q0 -38 15 -65.5t38.5 -45.5t52 -26.5t56.5 -8.5q41 0 71 13t51 33t35 43t21.5 43t10 34t2.5 16q3 4 4 -1t1 -13.5t-1 -16.5t-1 -11q-1 -6 -5 -21t-14 -35t-28 -41.5t-47 -40.5zM313 280q-5 2 -14.5 3t-21.5 1h-17.5t-19.5 -2q10 -18 17.5 -23.5
t17.5 -7.5q11 -3 19 1t13 10q6 7 10 17q-1 1 -4 1zM290 562q9 -2 21.5 -10.5t25 -18t22.5 -17t13 -6.5q0 -8 -5 -8h1q-4 -2 -7 -2q-6 0 -15.5 2.5t-20 6.5t-21 8.5t-17.5 8.5q-12 -5 -28.5 -8t-30.5 -3q-11 0 -18.5 2t-7.5 5q0 10 4 10q2 -1 13.5 3t24.5 9.5t24.5 11.5
t13.5 9q1 0 1 0.5t1 0.5q2 0 6 -4z" />
    <glyph glyph-name="Edieresis" unicode="&#xcb;" horiz-adv-x="417" 
d="M330 -31q-21 -16 -49 -24t-59 -8q-32 0 -66.5 11t-63 33t-46.5 56t-18 81q0 40 12.5 72t33.5 56t48.5 41t57.5 27l-6 24t-6.5 36t-3.5 40.5t3 37.5t13 28t26 11q18 0 29.5 -7.5t22.5 -12.5q26 -15 48.5 -29t40.5 -28q38 -29 64.5 -39.5t28.5 -10.5q0 -7 -15 -7
q-4 0 -12 2t-21.5 7.5t-33 15.5t-46.5 27q-11 4 -25 12t-28.5 16t-27 14t-21.5 6q-12 0 -12 -13q0 -28 7 -60.5t17 -59.5q24 3 43 3q16 0 32 -2t29 -7t21.5 -14.5t8.5 -25.5q0 -6 -4 -19t-14.5 -26t-27.5 -21t-43 -4q-28 11 -45.5 28t-27.5 39q-24 -6 -47 -21t-40.5 -36.5
t-28 -48t-10.5 -56.5q0 -38 15 -65.5t38.5 -45.5t52 -26.5t56.5 -8.5q41 0 71 13t51 33t35 43t21.5 43t10 34t2.5 16q3 4 4 -1t1 -13.5t-1 -16.5t-1 -11q-1 -6 -5 -21t-14 -35t-28 -41.5t-47 -40.5zM313 280q-5 2 -14.5 3t-21.5 1h-17.5t-19.5 -2q10 -18 17.5 -23.5
t17.5 -7.5q11 -3 19 1t13 10q6 7 10 17q-1 1 -4 1zM270 513q0 -3 -2 -3q-9 1 -15 4q-6 2 -10.5 5t-4.5 7t3 10t7 11t7 9.5t3 7.5q2 0 3 0.5t2 0.5q9 0 9 -34v-11t-2 -7zM330 563q2 0 3.5 -10.5t1.5 -21.5q0 -21 -4 -21q-9 1 -15 4q-6 2 -10.5 5t-4.5 7t3 10t7 11t7 9.5
t3 7.5q2 0 3 0.5t2 0.5q2 0 4 -2z" />
    <glyph glyph-name="Igrave" unicode="&#xcc;" horiz-adv-x="118" 
d="M32 -78q1 0 8 23.5t17.5 60.5t22 83.5t21.5 91.5t16.5 83.5t6.5 61.5q0 17 -4.5 21.5t-9.5 4.5q-19 0 -21.5 -6t-4.5 -17q-1 -8 -6 -37.5t-11.5 -70.5t-13.5 -87t-13.5 -86.5t-11 -70.5t-4.5 -37v1q0 -18 8 -19zM168 424v-1q0 -3 -7.5 -4.5t-18.5 -1.5t-24 1.5t-24 4.5
t-18 8t-7 11q0 7 3 12t6.5 8t6 4t0.5 1q1 0 1.5 -0.5t1.5 -0.5q2 -3 12.5 -8.5t23 -11t24 -9.5t15.5 -4h1q4 0 4 -9z" />
    <glyph glyph-name="Iacute" unicode="&#xcd;" horiz-adv-x="118" 
d="M32 -78q-8 1 -8 19v-1q0 7 4.5 37t11 70.5t13.5 86.5t13.5 87t11.5 70.5t6 37.5q2 11 4.5 17t21.5 6q5 0 9.5 -4.5t4.5 -21.5q0 -23 -6.5 -61.5t-16.5 -83.5t-21.5 -91.5t-22 -83.5t-17.5 -60.5t-8 -23.5zM70 425q0 6 10 9.5t23.5 8t26.5 10t20 14.5q1 0 2 1h-1
q0 -1 9 -6t9 -19q0 -6 -7.5 -11t-18.5 -8t-23.5 -4.5t-23.5 -1.5q-12 0 -20 1.5t-6 5.5z" />
    <glyph glyph-name="Icircumflex" unicode="&#xce;" horiz-adv-x="118" 
d="M32 -78q-8 1 -8 19v-1q0 7 4.5 37t11 70.5t13.5 86.5t13.5 87t11.5 70.5t6 37.5q2 11 4.5 17t21.5 6q5 0 9.5 -4.5t4.5 -21.5q0 -23 -6.5 -61.5t-16.5 -83.5t-21.5 -91.5t-22 -83.5t-17.5 -60.5t-8 -23.5zM120 473q9 -2 21.5 -10.5t25 -18t22.5 -17t13 -6.5q0 -8 -5 -8h1
q-4 -2 -7 -2q-6 0 -15.5 2.5t-20 6.5t-21 8.5t-17.5 8.5q-12 -5 -28.5 -8t-30.5 -3q-11 0 -18.5 2t-7.5 5q0 10 4 10q2 -1 13.5 3t24.5 9.5t24.5 11.5t13.5 9q1 0 1 0.5t1 0.5q2 0 6 -4z" />
    <glyph glyph-name="Idieresis" unicode="&#xcf;" horiz-adv-x="118" 
d="M32 -78q-8 1 -8 19v-1q0 7 4.5 37t11 70.5t13.5 86.5t13.5 87t11.5 70.5t6 37.5q2 11 4.5 17t21.5 6q5 0 9.5 -4.5t4.5 -21.5q0 -23 -6.5 -61.5t-16.5 -83.5t-21.5 -91.5t-22 -83.5t-17.5 -60.5t-8 -23.5zM102 419q0 -3 -2 -3q-9 1 -15 4q-6 2 -10.5 5t-4.5 7t3 10t7 11
t7 9.5t3 7.5q2 0 3 0.5t2 0.5q9 0 9 -34v-11t-2 -7zM162 469q2 0 3.5 -10.5t1.5 -21.5q0 -21 -4 -21q-9 1 -15 4q-6 2 -10.5 5t-4.5 7t3 10t7 11t7 9.5t3 7.5q2 0 3 0.5t2 0.5q2 0 4 -2z" />
    <glyph glyph-name="Ntilde" unicode="&#xd1;" horiz-adv-x="355" 
d="M239 483q32 0 52 -15.5t31.5 -38.5t15.5 -51t4 -52q0 -30 -6 -73t-14.5 -85.5t-16.5 -78.5t-12 -53q-5 -22 -12 -36t-21 -14q-5 0 -10.5 0.5t-3.5 10.5q4 28 13 67.5t18 84.5t16 91t7 86q0 17 -3 38.5t-10 40t-19 31t-31 12.5q-24 0 -44 -13t-35.5 -32t-27.5 -40.5
t-21 -39.5q-9 -53 -21.5 -112t-24.5 -109t-20.5 -82.5t-9.5 -32.5q-9 2 -9 15q0 2 0.5 3t0.5 3v-1q1 9 5 42t10 78t13 96.5t13 96.5t10.5 78t5.5 42q2 12 5 18.5t22 6.5q5 0 9 -4.5t4 -24.5v-13.5t-1 -16.5q6 12 17.5 25.5t27.5 25t34.5 19t38.5 7.5zM234 561q2 6 11.5 10
t20.5 4q12 0 19.5 -5.5t13 -12.5t9 -12.5t7.5 -5.5q5 0 6 1t2 2.5t3 3t10 1.5q2 0 10.5 0.5t8.5 -9.5q0 -8 -9 -20.5t-27 -12.5q-17 0 -25.5 7.5t-14 16t-8.5 16t-8 7.5q-6 0 -12 -4.5t-11 -10t-8.5 -10.5t-3.5 -7q0 -1 1 -1q-8 0 -8 9v-1q0 3 2 13t11 21z" />
    <glyph glyph-name="Ograve" unicode="&#xd2;" horiz-adv-x="485" 
d="M370 434q-13 9 -24 14t-19.5 9.5t-13 11t-4.5 19.5q0 4 12 4q13 0 39.5 -9.5t52.5 -34t45.5 -66.5t19.5 -107q0 -47 -17 -100.5t-51 -99.5t-84 -76t-117 -30q-45 0 -80 18.5t-58.5 48.5t-36 67t-12.5 73q0 39 11.5 74t30.5 61q28 40 58 63t54.5 34.5t39.5 14.5t14 3
q0 -6 -11 -11.5t-32 -16.5h1q-4 -2 -26 -16t-47 -40t-45.5 -64t-20.5 -88q0 -32 10 -65t29.5 -59.5t48.5 -43.5t67 -17q49 0 91 23.5t72.5 59.5t47.5 78.5t17 80.5q0 43 -6.5 75.5t-16.5 55.5t-20.5 37t-18.5 19zM338 523v-1q0 -3 -7.5 -4.5t-18.5 -1.5t-24 1.5t-24 4.5
t-18 8t-7 11q0 7 3 12t6.5 8t6 4t0.5 1q1 0 1.5 -0.5t1.5 -0.5q2 -3 12.5 -8.5t23 -11t24 -9.5t15.5 -4h1q4 0 4 -9z" />
    <glyph glyph-name="Oacute" unicode="&#xd3;" horiz-adv-x="485" 
d="M370 434q-13 9 -24 14t-19.5 9.5t-13 11t-4.5 19.5q0 4 12 4q13 0 39.5 -9.5t52.5 -34t45.5 -66.5t19.5 -107q0 -47 -17 -100.5t-51 -99.5t-84 -76t-117 -30q-45 0 -80 18.5t-58.5 48.5t-36 67t-12.5 73q0 39 11.5 74t30.5 61q28 40 58 63t54.5 34.5t39.5 14.5t14 3
q0 -6 -11 -11.5t-32 -16.5h1q-4 -2 -26 -16t-47 -40t-45.5 -64t-20.5 -88q0 -32 10 -65t29.5 -59.5t48.5 -43.5t67 -17q49 0 91 23.5t72.5 59.5t47.5 78.5t17 80.5q0 43 -6.5 75.5t-16.5 55.5t-20.5 37t-18.5 19zM237 523q0 6 10 9.5t23.5 8t26.5 10t20 14.5q1 0 2 1h-1
q0 -1 9 -6t9 -19q0 -6 -7.5 -11t-18.5 -8t-23.5 -4.5t-23.5 -1.5q-12 0 -20 1.5t-6 5.5z" />
    <glyph glyph-name="Ocircumflex" unicode="&#xd4;" horiz-adv-x="485" 
d="M370 434q-13 9 -24 14t-19.5 9.5t-13 11t-4.5 19.5q0 4 12 4q13 0 39.5 -9.5t52.5 -34t45.5 -66.5t19.5 -107q0 -47 -17 -100.5t-51 -99.5t-84 -76t-117 -30q-45 0 -80 18.5t-58.5 48.5t-36 67t-12.5 73q0 39 11.5 74t30.5 61q28 40 58 63t54.5 34.5t39.5 14.5t14 3
q0 -6 -11 -11.5t-32 -16.5h1q-4 -2 -26 -16t-47 -40t-45.5 -64t-20.5 -88q0 -32 10 -65t29.5 -59.5t48.5 -43.5t67 -17q49 0 91 23.5t72.5 59.5t47.5 78.5t17 80.5q0 43 -6.5 75.5t-16.5 55.5t-20.5 37t-18.5 19zM288 562q9 -2 21.5 -10.5t25 -18t22.5 -17t13 -6.5
q0 -8 -5 -8h1q-4 -2 -7 -2q-6 0 -15.5 2.5t-20 6.5t-21 8.5t-17.5 8.5q-12 -5 -28.5 -8t-30.5 -3q-11 0 -18.5 2t-7.5 5q0 10 4 10q2 -1 13.5 3t24.5 9.5t24.5 11.5t13.5 9q1 0 1 0.5t1 0.5q2 0 6 -4z" />
    <glyph glyph-name="Otilde" unicode="&#xd5;" horiz-adv-x="485" 
d="M370 434q-13 9 -24 14t-19.5 9.5t-13 11t-4.5 19.5q0 4 12 4q13 0 39.5 -9.5t52.5 -34t45.5 -66.5t19.5 -107q0 -47 -17 -100.5t-51 -99.5t-84 -76t-117 -30q-45 0 -80 18.5t-58.5 48.5t-36 67t-12.5 73q0 39 11.5 74t30.5 61q28 40 58 63t54.5 34.5t39.5 14.5t14 3
q0 -6 -11 -11.5t-32 -16.5h1q-4 -2 -26 -16t-47 -40t-45.5 -64t-20.5 -88q0 -32 10 -65t29.5 -59.5t48.5 -43.5t67 -17q49 0 91 23.5t72.5 59.5t47.5 78.5t17 80.5q0 43 -6.5 75.5t-16.5 55.5t-20.5 37t-18.5 19zM235 561q2 6 11.5 10t20.5 4q12 0 19.5 -5.5t13 -12.5
t9 -12.5t7.5 -5.5q5 0 6 1t2 2.5t3 3t10 1.5q2 0 10.5 0.5t8.5 -9.5q0 -8 -9 -20.5t-27 -12.5q-17 0 -25.5 7.5t-14 16t-8.5 16t-8 7.5q-6 0 -12 -4.5t-11 -10t-8.5 -10.5t-3.5 -7q0 -1 1 -1q-8 0 -8 9v-1q0 3 2 13t11 21z" />
    <glyph glyph-name="Odieresis" unicode="&#xd6;" horiz-adv-x="485" 
d="M370 434q-13 9 -24 14t-19.5 9.5t-13 11t-4.5 19.5q0 4 12 4q13 0 39.5 -9.5t52.5 -34t45.5 -66.5t19.5 -107q0 -47 -17 -100.5t-51 -99.5t-84 -76t-117 -30q-45 0 -80 18.5t-58.5 48.5t-36 67t-12.5 73q0 39 11.5 74t30.5 61q28 40 58 63t54.5 34.5t39.5 14.5t14 3
q0 -6 -11 -11.5t-32 -16.5h1q-4 -2 -26 -16t-47 -40t-45.5 -64t-20.5 -88q0 -32 10 -65t29.5 -59.5t48.5 -43.5t67 -17q49 0 91 23.5t72.5 59.5t47.5 78.5t17 80.5q0 43 -6.5 75.5t-16.5 55.5t-20.5 37t-18.5 19zM270 513q0 -3 -2 -3q-9 1 -15 4q-6 2 -10.5 5t-4.5 7t3 10
t7 11t7 9.5t3 7.5q2 0 3 0.5t2 0.5q9 0 9 -34v-11t-2 -7zM330 563q2 0 3.5 -10.5t1.5 -21.5q0 -21 -4 -21q-9 1 -15 4q-6 2 -10.5 5t-4.5 7t3 10t7 11t7 9.5t3 7.5q2 0 3 0.5t2 0.5q2 0 4 -2z" />
    <glyph glyph-name="Ugrave" unicode="&#xd9;" horiz-adv-x="361" 
d="M294 -16q-9 2 -9 13q0 2 0.5 4t0.5 6q-2 -2 -3.5 -3t-3.5 -3q-4 -2 -19 -12.5t-38.5 -22.5t-53.5 -21.5t-63 -9.5q-15 0 -30 5t-27 15.5t-20 25.5t-8 35q0 21 6.5 40.5t7.5 38.5q15 60 30 117.5t27 104.5t19.5 79.5t9.5 42.5q1 10 2.5 18.5t4.5 13.5t9.5 8t17.5 3
q8 -1 8 -23t-7.5 -60t-20 -87t-28.5 -104.5t-33 -111.5q-4 -23 -11.5 -46t-7.5 -42q0 -26 19.5 -36t42.5 -10q29 0 57 7.5t51 18t39.5 20.5t23.5 15q2 20 6.5 54t9.5 73.5t10.5 81t10.5 77t8.5 60.5t4.5 32q2 11 4 17.5t17 6.5q9 0 14 -3.5t5 -26.5q0 -24 -6 -64.5t-15 -86
t-19.5 -92t-19.5 -84t-15.5 -61t-7.5 -23.5zM335 523v-1q0 -3 -7.5 -4.5t-18.5 -1.5t-24 1.5t-24 4.5t-18 8t-7 11q0 7 3 12t6.5 8t6 4t0.5 1q1 0 1.5 -0.5t1.5 -0.5q2 -3 12.5 -8.5t23 -11t24 -9.5t15.5 -4h1q4 0 4 -9z" />
    <glyph glyph-name="Uacute" unicode="&#xda;" horiz-adv-x="361" 
d="M294 -16q-9 2 -9 13q0 2 0.5 4t0.5 6q-2 -2 -3.5 -3t-3.5 -3q-4 -2 -19 -12.5t-38.5 -22.5t-53.5 -21.5t-63 -9.5q-15 0 -30 5t-27 15.5t-20 25.5t-8 35q0 21 6.5 40.5t7.5 38.5q15 60 30 117.5t27 104.5t19.5 79.5t9.5 42.5q1 10 2.5 18.5t4.5 13.5t9.5 8t17.5 3
q8 -1 8 -23t-7.5 -60t-20 -87t-28.5 -104.5t-33 -111.5q-4 -23 -11.5 -46t-7.5 -42q0 -26 19.5 -36t42.5 -10q29 0 57 7.5t51 18t39.5 20.5t23.5 15q2 20 6.5 54t9.5 73.5t10.5 81t10.5 77t8.5 60.5t4.5 32q2 11 4 17.5t17 6.5q9 0 14 -3.5t5 -26.5q0 -24 -6 -64.5t-15 -86
t-19.5 -92t-19.5 -84t-15.5 -61t-7.5 -23.5zM238 523q0 6 10 9.5t23.5 8t26.5 10t20 14.5q1 0 2 1h-1q0 -1 9 -6t9 -19q0 -6 -7.5 -11t-18.5 -8t-23.5 -4.5t-23.5 -1.5q-12 0 -20 1.5t-6 5.5z" />
    <glyph glyph-name="Ucircumflex" unicode="&#xdb;" horiz-adv-x="361" 
d="M294 -16q-9 2 -9 13q0 2 0.5 4t0.5 6q-2 -2 -3.5 -3t-3.5 -3q-4 -2 -19 -12.5t-38.5 -22.5t-53.5 -21.5t-63 -9.5q-15 0 -30 5t-27 15.5t-20 25.5t-8 35q0 21 6.5 40.5t7.5 38.5q15 60 30 117.5t27 104.5t19.5 79.5t9.5 42.5q1 10 2.5 18.5t4.5 13.5t9.5 8t17.5 3
q8 -1 8 -23t-7.5 -60t-20 -87t-28.5 -104.5t-33 -111.5q-4 -23 -11.5 -46t-7.5 -42q0 -26 19.5 -36t42.5 -10q29 0 57 7.5t51 18t39.5 20.5t23.5 15q2 20 6.5 54t9.5 73.5t10.5 81t10.5 77t8.5 60.5t4.5 32q2 11 4 17.5t17 6.5q9 0 14 -3.5t5 -26.5q0 -24 -6 -64.5t-15 -86
t-19.5 -92t-19.5 -84t-15.5 -61t-7.5 -23.5zM292 562q9 -2 21.5 -10.5t25 -18t22.5 -17t13 -6.5q0 -8 -5 -8h1q-4 -2 -7 -2q-6 0 -15.5 2.5t-20 6.5t-21 8.5t-17.5 8.5q-12 -5 -28.5 -8t-30.5 -3q-11 0 -18.5 2t-7.5 5q0 10 4 10q2 -1 13.5 3t24.5 9.5t24.5 11.5t13.5 9
q1 0 1 0.5t1 0.5q2 0 6 -4z" />
    <glyph glyph-name="Udieresis" unicode="&#xdc;" horiz-adv-x="361" 
d="M294 -16q-9 2 -9 13q0 2 0.5 4t0.5 6q-2 -2 -3.5 -3t-3.5 -3q-4 -2 -19 -12.5t-38.5 -22.5t-53.5 -21.5t-63 -9.5q-15 0 -30 5t-27 15.5t-20 25.5t-8 35q0 21 6.5 40.5t7.5 38.5q15 60 30 117.5t27 104.5t19.5 79.5t9.5 42.5q1 10 2.5 18.5t4.5 13.5t9.5 8t17.5 3
q8 -1 8 -23t-7.5 -60t-20 -87t-28.5 -104.5t-33 -111.5q-4 -23 -11.5 -46t-7.5 -42q0 -26 19.5 -36t42.5 -10q29 0 57 7.5t51 18t39.5 20.5t23.5 15q2 20 6.5 54t9.5 73.5t10.5 81t10.5 77t8.5 60.5t4.5 32q2 11 4 17.5t17 6.5q9 0 14 -3.5t5 -26.5q0 -24 -6 -64.5t-15 -86
t-19.5 -92t-19.5 -84t-15.5 -61t-7.5 -23.5zM272 513q0 -3 -2 -3q-9 1 -15 4q-6 2 -10.5 5t-4.5 7t3 10t7 11t7 9.5t3 7.5q2 0 3 0.5t2 0.5q9 0 9 -34v-11t-2 -7zM332 563q2 0 3.5 -10.5t1.5 -21.5q0 -21 -4 -21q-9 1 -15 4q-6 2 -10.5 5t-4.5 7t3 10t7 11t7 9.5t3 7.5
q2 0 3 0.5t2 0.5q2 0 4 -2z" />
    <glyph glyph-name="Yacute" unicode="&#xdd;" horiz-adv-x="384" 
d="M59 14q-14 5 -27 21.5t-13 35.5q0 18 3.5 33t7.5 30q15 55 30 107t28 94t21 71t9 38q2 9 3 16t4 12t9.5 7.5t18.5 2.5q8 -2 8 -20q0 -20 -8 -55t-21 -79t-30 -94t-34 -101q-11 -30 -11 -55q0 -17 10.5 -28.5t39.5 -15.5q19 14 39.5 24t42.5 10q14 0 27 -2t25 -4
q15 6 26 11.5t18 9.5q4 29 7 54.5t6 53.5t7.5 63t10.5 83q1 8 4.5 18t10 18.5t15.5 14.5t21 6q15 0 24.5 -7.5t15.5 -18.5t8.5 -22.5t2.5 -20.5q2 -54 -21 -113t-61 -105q-3 -20 -5 -31.5t-3.5 -19t-3.5 -13.5t-3 -15q19 -12 28 -21.5t11 -9.5q-2 -2 -4 -2q-5 0 -14.5 5
t-23.5 13q-8 -35 -20 -69.5t-32 -65.5t-49 -56t-70 -41q-15 -9 -35 -9q-42 0 -63 26.5t-21 71.5q0 39 14.5 75.5t37.5 62.5q-11 1 -21 6zM359 334q-5 -49 -10 -95t-9 -92q6 10 13 27.5t13.5 38.5t11 45.5t4.5 50.5q0 17 -2.5 32t-10.5 15q-7 0 -8.5 -8.5t-1.5 -13.5zM284 68
q-5 -2 -9.5 -5.5t-9.5 -6.5q5 -2 8.5 -3t7.5 -3zM192 45q-18 -2 -36 -10q10 2 19 4.5t17 5.5zM113 5q-22 -23 -37.5 -58.5t-15.5 -70.5q0 -27 10.5 -47.5t33.5 -20.5q9 0 18 4q37 10 63.5 33.5t45 54t30 65.5t17.5 68q-17 7 -35 11q-21 -11 -55.5 -24t-74.5 -15zM236 523
q0 6 10 9.5t23.5 8t26.5 10t20 14.5q1 0 2 1h-1q0 -1 9 -6t9 -19q0 -6 -7.5 -11t-18.5 -8t-23.5 -4.5t-23.5 -1.5q-12 0 -20 1.5t-6 5.5z" />
    <glyph glyph-name="igrave" unicode="&#xec;" horiz-adv-x="129" 
d="M137 75q0 4 -3 7q-1 0 -9.5 -10t-20.5 -22.5t-25.5 -23t-25.5 -10.5q-9 0 -12.5 11.5t-3.5 25.5q0 5 0.5 10t1.5 10q6 25 12.5 50t12 48.5t9 42.5t3.5 32t-4 16t-13 3q-17 0 -19 -5t-4 -14q0 -5 -4 -21t-10 -39t-12 -52.5t-9 -62.5q-2 -14 -1 -28.5t7 -26.5t17 -19.5
t29 -7.5q10 0 24.5 10t27.5 24t22.5 28.5t9.5 23.5zM114 323v-1q0 -3 -7.5 -4.5t-18.5 -1.5t-24 1.5t-24 4.5t-18 8t-7 11q0 7 3 12t6.5 8t6 4t0.5 1q1 0 1.5 -0.5t1.5 -0.5q2 -3 12.5 -8.5t23 -11t24 -9.5t15.5 -4h1q4 0 4 -9z" />
    <glyph glyph-name="iacute" unicode="&#xed;" horiz-adv-x="129" 
d="M137 75q0 -9 -9.5 -23.5t-22.5 -28.5t-27.5 -24t-24.5 -10q-18 0 -29 7.5t-17 19.5t-7 26.5t1 28.5q3 33 9 62.5t12 52.5t10 39t4 21q2 9 4 14t19 5q9 0 13 -3t4 -16t-3.5 -32t-9 -42.5t-12 -48.5t-12.5 -50q-1 -5 -1.5 -10t-0.5 -10q0 -14 3.5 -25.5t12.5 -11.5
q12 0 25.5 10.5t25.5 23t20.5 22.5t9.5 10q3 -3 3 -7zM16 323q0 6 10 9.5t23.5 8t26.5 10t20 14.5q1 0 2 1h-1q0 -1 9 -6t9 -19q0 -6 -7.5 -11t-18.5 -8t-23.5 -4.5t-23.5 -1.5q-12 0 -20 1.5t-6 5.5z" />
    <glyph glyph-name="icircumflex" unicode="&#xee;" horiz-adv-x="129" 
d="M137 75q0 -9 -9.5 -23.5t-22.5 -28.5t-27.5 -24t-24.5 -10q-18 0 -29 7.5t-17 19.5t-7 26.5t1 28.5q3 33 9 62.5t12 52.5t10 39t4 21q2 9 4 14t19 5q9 0 13 -3t4 -16t-3.5 -32t-9 -42.5t-12 -48.5t-12.5 -50q-1 -5 -1.5 -10t-0.5 -10q0 -14 3.5 -25.5t12.5 -11.5
q12 0 25.5 10.5t25.5 23t20.5 22.5t9.5 10q3 -3 3 -7zM68 362q9 -2 21.5 -10.5t25 -18t22.5 -17t13 -6.5q0 -8 -5 -8h1q-4 -2 -7 -2q-6 0 -15.5 2.5t-20 6.5t-21 8.5t-17.5 8.5q-12 -5 -28.5 -8t-30.5 -3q-11 0 -18.5 2t-7.5 5q0 10 4 10q2 -1 13.5 3t24.5 9.5t24.5 11.5
t13.5 9q1 0 1 0.5t1 0.5q2 0 6 -4z" />
    <glyph glyph-name="idieresis" unicode="&#xef;" horiz-adv-x="129" 
d="M137 75q0 -9 -9.5 -23.5t-22.5 -28.5t-27.5 -24t-24.5 -10q-18 0 -29 7.5t-17 19.5t-7 26.5t1 28.5q3 33 9 62.5t12 52.5t10 39t4 21q2 9 4 14t19 5q9 0 13 -3t4 -16t-3.5 -32t-9 -42.5t-12 -48.5t-12.5 -50q-1 -5 -1.5 -10t-0.5 -10q0 -14 3.5 -25.5t12.5 -11.5
q12 0 25.5 10.5t25.5 23t20.5 22.5t9.5 10q3 -3 3 -7zM48 313q0 -3 -2 -3q-9 1 -15 4q-6 2 -10.5 5t-4.5 7t3 10t7 11t7 9.5t3 7.5q2 0 3 0.5t2 0.5q9 0 9 -34v-11t-2 -7zM108 363q2 0 3.5 -10.5t1.5 -21.5q0 -21 -4 -21q-9 1 -15 4q-6 2 -10.5 5t-4.5 7t3 10t7 11t7 9.5
t3 7.5q2 0 3 0.5t2 0.5q2 0 4 -2z" />
    <glyph glyph-name="ccedilla" unicode="&#xe7;" horiz-adv-x="228" 
d="M84 -8q2 -5 -1 -12.5t-9 -13.5q-6 -7 -13 -8t-13.5 0t-11.5 2t-8 -1q-2 -3 -2 -4.5t0.5 -3t0 -3.5t-4.5 -6l-6.5 -6.5t-9.5 0.5t-6.5 17t8.5 23q9 9 17.5 10t16 -1t13.5 -4.5t8 0.5q7 7 5.5 21.5t-3.5 17.5h-1q5 3 9 -1v1q2 -2 5.5 -9.5t5.5 -18.5zM248 91
q-2 -3 -16 -19.5t-36.5 -34.5t-52.5 -32.5t-64 -14.5q-37 0 -57.5 23.5t-20.5 63.5q0 43 16.5 76t39.5 55t49 33.5t44 11.5q24 2 40 -6.5t16 -18.5q0 -3 -4.5 -10.5t-14.5 -7.5q-5 0 -11 2.5t-17 2.5q-20 0 -41 -11t-38 -31.5t-28.5 -48.5t-12.5 -61q0 -23 13 -31.5t33 -8.5
q41 0 71.5 15.5t51.5 34t32 33t13 12.5q3 -2 3 -7q0 -9 -8 -20z" />
    <glyph glyph-name="ring" unicode="&#x2da;" horiz-adv-x="107" 
d="M57 361q12 0 17 -7.5t3.5 -16.5t-8 -17t-16.5 -9q-9 0 -14 7.5t-5 16.5t5.5 17t17.5 9zM57 348q-6 0 -8.5 -4t-2.5 -8.5t2.5 -8.5t6.5 -4q5 0 8 4t3.5 8.5t-1.5 8.5t-8 4z" />
    <glyph glyph-name="aring" unicode="&#xe5;" horiz-adv-x="287" 
d="M260 13q-3 -4 -15.5 -14t-29.5 -10q-16 0 -27.5 12t-16.5 26q-12 -13 -34 -26t-54 -13q-20 0 -35 8t-25.5 20.5t-16 29t-5.5 34.5q0 31 9.5 62.5t27.5 57.5t44.5 42.5t60.5 16.5q23 0 37 -5.5t18 -8.5q0 9 3.5 14.5t19.5 5.5q10 0 13.5 -3t3.5 -17q0 -12 -5 -30t-11 -40
t-12 -47.5t-8 -52.5q0 -4 -0.5 -8t-0.5 -8q0 -15 4 -28t12 -14q14 -2 27 8t23.5 22.5t18.5 23t14 10.5q2 0 3 -3t1 -5q0 -3 -5 -10v1q-3 -4 -12 -17.5t-27 -33.5zM165 71q-2 39 5 75t19 59q-8 4 -19.5 7t-26.5 3q-23 0 -42.5 -14t-34.5 -35t-23.5 -45.5t-8.5 -45.5
q0 -27 19 -44t43 -17q20 0 40 11.5t30 22.5q-1 6 -1 11.5v11.5zM177 361q12 0 17 -7.5t3.5 -16.5t-8 -17t-16.5 -9q-9 0 -14 7.5t-5 16.5t5.5 17t17.5 9zM177 348q-6 0 -8.5 -4t-2.5 -8.5t2.5 -8.5t6.5 -4q5 0 8 4t3.5 8.5t-1.5 8.5t-8 4z" />
    <glyph glyph-name="oslash" unicode="&#xf8;" 
d="M297 164q1 -1 1 -3q0 -3 -6 -13.5t-18 -23t-30 -24t-43 -15.5q-6 -14 -18.5 -30.5t-29 -31t-37 -24.5t-43.5 -10q-28 0 -44.5 14.5t-25.5 34t-11.5 39t-2.5 28.5q0 17 3 32t8 29q12 40 29 62t32.5 32t26.5 12t12 2q9 0 15 -4.5t6 -13.5q0 -5 -1 -8q0 -1 -14 -8t-30.5 -24
t-30 -46t-13.5 -72q0 -26 10 -47t36 -23q28 3 50 18.5t38 37.5q-30 5 -49 30.5t-19 55.5q0 21 6.5 38t15.5 30t19.5 20t18.5 7q12 0 23 -8t19.5 -22t13 -32.5t4.5 -39.5q0 -20 -4 -37q23 10 33.5 19t15 15t6.5 9.5t9 3.5t19 -9zM184 117q10 24 10 51q0 11 -1.5 24.5t-6 25.5
t-12 20.5t-18.5 8.5q-6 0 -12 -7t-10.5 -17t-7 -21.5t-2.5 -21.5q0 -24 14.5 -44t38.5 -20q2 0 3.5 0.5t3.5 0.5zM128.137 318.795q9.28516 -1.85742 9.28516 -19.1895q0 -15.4756 -6.80859 -40.8555q-6.80957 -25.3799 -17.333 -56.0215t-22.5938 -64.0684
q-12.0713 -33.4268 -22.5947 -64.9971q-10.5234 -31.5693 -17.332 -58.8066q-6.80957 -27.2373 -6.80957 -45.1885q0 -12.3799 4.02344 -19.499q4.02441 -7.11816 12.6904 -7.7373q-0.619141 -0.619141 -1.85742 -0.619141q-2.47559 0 -6.80859 2.78516
q-4.33398 2.78613 -8.35742 8.97559q-4.02344 6.19043 -7.11816 15.4756q-3.0957 9.28516 -3.0957 21.666q0 21.0469 5.57129 48.5928t14.2373 57.5684q8.66699 30.0225 18.5713 60.3545t18.5703 56.6406t14.2373 46.7354q5.57129 20.4277 5.57129 30.332
q0 3.71387 -1.23828 6.19043q0.619141 9.9043 2.78516 15.7852q2.16699 5.88086 16.4043 5.88086z" />
    <glyph glyph-name="ae" unicode="&#xe6;" horiz-adv-x="394" 
d="M260 13q-2 -5 -15 -14.5t-30 -9.5q-16 0 -27.5 12t-16.5 26q-12 -13 -34 -26t-54 -13q-20 0 -35 8t-25.5 20.5t-16 29t-5.5 34.5q0 31 9.5 62.5t27.5 57.5t44.5 42.5t60.5 16.5q23 0 37 -5.5t18 -8.5q0 9 3.5 14.5t19.5 5.5q10 0 13.5 -3t3.5 -17q0 -12 -5 -30t-11 -40
t-12 -47.5t-8 -52.5q0 -4 -0.5 -8t-0.5 -8q0 -15 4 -28t12 -14q14 -2 23.5 1.5t15 6t6.5 1t-2 -12.5zM165 71q-2 39 5 75t19 59q-8 4 -19.5 7t-26.5 3q-23 0 -42.5 -14t-34.5 -35t-23.5 -45.5t-8.5 -45.5q0 -27 19 -44t43 -17q20 0 40 11.5t30 22.5q-1 6 -1 11.5v11.5z
M418 121q1 -1 1 -4q0 -9 -21.5 -29.5t-52.5 -41.5t-64 -37t-57 -16t-43 16t-19 64q0 42 15.5 76t37.5 58.5t46.5 38t42.5 14.5q10 0 22.5 -2t23.5 -8.5t18.5 -18t7.5 -29.5q0 -28 -13.5 -48t-33 -33t-40 -19.5t-33.5 -6.5q-14 0 -26 3t-22 8q-8 -24 -8 -46q0 -18 5 -28
t21 -10q11 0 23 3t23 8q36 15 62.5 31t44.5 29.5t27.5 21.5t11.5 6zM274 204q-17 -9 -33 -31t-27 -50q10 -2 18 -2q19 0 37 8t32 20t22.5 25.5t8.5 24.5t-6 13.5t-17 2.5q-16 0 -35 -11z" />
    <glyph glyph-name="hyphen" unicode="-" horiz-adv-x="250" 
d="M146 199q33 -6 58 -12.5t25 -8.5q0 -10 -8 -10q-5 -2 -28.5 -2.5t-52.5 -0.5l-33 -1h-68q-5 0 -8.5 3t-3.5 26q0 13 23.5 14.5t55.5 -2.5q2 0 6 -1q8 -2 14 -2q9 -2 20 -3z" />
    <glyph glyph-name="multiply" unicode="&#xd7;" horiz-adv-x="313" 
d="M274 273q5 -5 5 -13q0 -12 -9 -29t-24.5 -38t-36 -45t-42.5 -48q11 -35 19 -63t8 -39q0 -5 -4 -5q-5 0 -8 3t-7 11.5t-11 24.5t-21 42q-33 -32 -48.5 -48t-22.5 -24t-11 -11t-13 -9q-8 -2 9.5 33t66.5 96q-32 60 -47.5 95.5t-15.5 37.5q0 1 5 9t21 8q5 0 12.5 -9.5
t16 -26t17.5 -37.5t18 -44q39 48 57 74t27.5 38.5t16 14.5t22.5 2z" />
    <glyph glyph-name="Aring" unicode="&#xc5;" horiz-adv-x="402" 
d="M319 141q2 16 4.5 33t5.5 34q-18 -1 -53 -1.5t-73 -0.5h-74h-57q-11 -45 -17 -83t-9 -65t-4.5 -42.5t-3.5 -15.5q-8 0 -8 29v7.5t1 8.5v-1q1 14 3 56.5t13 105.5q-7 0 -11 4.5t-4 24.5q0 10 25 13q8 31 21 68t35 70.5t55 60.5t81 38q12 3 24 3q37 0 59 -20.5t34 -48
t15.5 -54t3.5 -38.5q0 -34 -4 -64t-8 -56q-9 -69 -17 -116t-10 -62q-3 -29 -8.5 -46t-25.5 -17q-5 0 -7 5t-2 24q0 23 4 60.5t12 85.5zM84 250q27 0 61.5 -2.5t69 -6.5t65.5 -8.5t51 -7.5q5 26 9 54t4 55q0 21 -4 41.5t-13.5 37t-24 27t-35.5 10.5q-38 0 -67.5 -20t-52 -50
t-38.5 -65t-25 -65zM289 561q12 0 17 -7.5t3.5 -16.5t-8 -17t-16.5 -9q-9 0 -14 7.5t-5 16.5t5.5 17t17.5 9zM289 548q-6 0 -8.5 -4t-2.5 -8.5t2.5 -8.5t6.5 -4q5 0 8 4t3.5 8.5t-1.5 8.5t-8 4z" />
    <glyph glyph-name="AE" unicode="&#xc6;" horiz-adv-x="704" 
d="M373 207q-1 -7 -7.5 -25t-14.5 -36t-16.5 -31t-13 -10.5t-3.5 26t11 77.5q-18 -1 -53 -1.5t-73 -0.5h-74h-57q-11 -45 -17 -83t-9 -65t-4.5 -42.5t-3.5 -15.5q-8 0 -8 29v7.5t1 8.5v-1q1 14 3 56.5t13 105.5q-7 0 -11 4.5t-4 24.5q0 10 25 13q8 31 21 68t35 70.5t55 60.5
t81 38q12 3 24 3q37 0 59 -20.5t34 -48t15.5 -54t3.5 -38.5q0 -34 -4 -64t-8 -56zM84 250q27 0 61.5 -2.5t69 -6.5t65.5 -8.5t51 -7.5q5 26 9 54t4 55q0 21 -4 41.5t-13.5 37t-24 27t-35.5 10.5q-38 0 -67.5 -20t-52 -50t-38.5 -65t-25 -65zM620 -31q-21 -16 -49 -24t-59 -8
q-32 0 -66.5 11t-63 33t-46.5 56t-18 81q0 40 12.5 72t33.5 56t48.5 41t57.5 27l-6 24t-6.5 36t-3.5 40.5t3 37.5t13 28t26 11q18 0 29.5 -7.5t22.5 -12.5q26 -15 48.5 -29t40.5 -28q38 -29 64.5 -39.5t28.5 -10.5q0 -7 -15 -7q-4 0 -12 2t-21.5 7.5t-33 15.5t-46.5 27
q-11 4 -25 12t-28.5 16t-27 14t-21.5 6q-12 0 -12 -13q0 -28 7 -60.5t17 -59.5q24 3 43 3q16 0 32 -2t29 -7t21.5 -14.5t8.5 -25.5q0 -6 -4 -19t-14.5 -26t-27.5 -21t-43 -4q-28 11 -45.5 28t-27.5 39q-24 -6 -47 -21t-40.5 -36.5t-28 -48t-10.5 -56.5q0 -38 15 -65.5
t38.5 -45.5t52 -26.5t56.5 -8.5q41 0 71 13t51 33t35 43t21.5 43t10 34t2.5 16q3 4 4 -1t1 -13.5t-1 -16.5t-1 -11q-1 -6 -5 -21t-14 -35t-28 -41.5t-47 -40.5zM603 280q-5 2 -14.5 3t-21.5 1h-17.5t-19.5 -2q10 -18 17.5 -23.5t17.5 -7.5q11 -3 19 1t13 10q6 7 10 17
q-1 1 -4 1z" />
    <glyph glyph-name="questiondown" unicode="&#xbf;" horiz-adv-x="306" 
d="M34.9912 -62.9844q-13.9961 3.99902 -13.9961 30.9922q0 24.9941 10.4971 64.9844q10.498 39.9902 26.4941 86.4785t34.9912 93.4775q18.9951 46.9883 34.9912 85.4785q15.9961 38.4912 27.4932 62.4854l11.4971 23.9941q5.99902 -1 5.99902 -11.9971
q0 -2 -4.99902 -25.4941t-20.9951 -77.4814q17.9961 8.99805 36.9912 8.99805q25.9941 0 40.9902 -10.4971t22.9941 -25.4941q7.99805 -14.9961 10.9971 -31.9922q2.99902 -16.9951 3.99902 -30.9922q2 -19.9951 -3.49902 -32.9922t-5.49902 -14.9961
q-4.99805 1 -3.99805 10.4971q0.999023 9.49805 0.999023 22.4951h-0.999023q0 0.999023 0.999023 0q1 -1 1 0.999023q0 5.99902 -3.49902 20.9951q-3.49902 14.9971 -10.9971 29.9932q-7.49902 14.9961 -19.4951 25.9932q-11.998 10.9971 -28.9932 10.9971
q-23.9941 0 -41.9902 -22.9941q-17.9951 -22.9941 -30.4922 -56.4863q-12.4971 -33.4912 -18.9951 -70.9824q-6.49902 -37.4902 -6.49902 -67.4834v-22.4941t1 -23.4951l9.99707 1q65.9844 21.9951 98.9766 52.4873q32.9922 30.4932 42.9893 69.4834
q7.99805 30.9922 4.49902 59.9854t-9.99805 50.9873q-6.49805 21.9941 -11.9971 34.4912q-5.49805 12.4971 -1.49902 9.49805q9.99707 -6.99805 19.9951 -14.9961q9.99707 -7.99805 17.4951 -22.9951q7.49805 -14.9961 11.498 -38.4902q3.99805 -23.4941 1.99902 -60.4854
q-1 -20.9951 -10.9971 -50.9873q-9.99805 -29.9922 -32.4922 -58.4854t-58.4863 -49.9883q-35.9902 -21.4951 -88.9775 -25.4932l-11.9971 -1l-2 1.99902l3.99902 -3.99902q0 1 -1.99902 2q-1 1 -3 2.99902q-1.99902 1.99902 -4.99805 3.99902
q-2 -6.99805 -7.49805 -10.9971q-5.49902 -3.99902 -22.4951 -3.99902zM172.958 405.9q-5.99902 2 -9.49805 5.49902t-3.49902 6.49902q0 7.99805 2.49902 18.4951q2.5 10.4971 6.49902 19.9951t8.99805 15.9961q4.99805 6.49805 9.99707 6.49805
q7.99805 0 13.9971 -3.99902q5.99805 -3.99902 5.99805 -7.99805q0 -22.9941 -10.9971 -41.9893q-10.9971 -18.9961 -23.9941 -18.9961z" />
    <glyph glyph-name="A" unicode="A" horiz-adv-x="402" 
d="M319 141q2 16 4.5 33t5.5 34q-18 -1 -53 -1.5t-73 -0.5h-74h-57q-11 -45 -17 -83t-9 -65t-4.5 -42.5t-3.5 -15.5q-8 0 -8 29v7.5t1 8.5v-1q1 14 3 56.5t13 105.5q-7 0 -11 4.5t-4 24.5q0 10 25 13q8 31 21 68t35 70.5t55 60.5t81 38q12 3 24 3q37 0 59 -20.5t34 -48
t15.5 -54t3.5 -38.5q0 -34 -4 -64t-8 -56q-9 -69 -17 -116t-10 -62q-3 -29 -8.5 -46t-25.5 -17q-5 0 -7 5t-2 24q0 23 4 60.5t12 85.5zM84 250q27 0 61.5 -2.5t69 -6.5t65.5 -8.5t51 -7.5q5 26 9 54t4 55q0 21 -4 41.5t-13.5 37t-24 27t-35.5 10.5q-38 0 -67.5 -20t-52 -50
t-38.5 -65t-25 -65z" />
    <glyph glyph-name="oe" unicode="&#x153;" horiz-adv-x="352" 
d="M418 121q1 -1 1 -4q0 -9 -21.5 -29.5t-52.5 -41.5t-64 -37t-57 -16t-43 16t-19 64q0 42 15.5 76t37.5 58.5t46.5 38t42.5 14.5q10 0 22.5 -2t23.5 -8.5t18.5 -18t7.5 -29.5q0 -28 -13.5 -48t-44 -41t-78 -27t-23 1.5t3.5 0t-28 -8.5q7 3 7 -19q0 -18 5 -28t21 -10
q11 0 23 3t23 8q36 15 62.5 31t44.5 29.5t27.5 21.5t11.5 6zM274 204q-17 -9 -33 -31t-27 -50q10 -2 18 -2q19 0 37 8t32 20t22.5 25.5t8.5 24.5t-6 13.5t-17 2.5q-16 0 -35 -11zM286 137q-24 -25 -42 -36.5t-43 -15.5q-6 -14 -18.5 -30.5t-29 -31t-37 -24.5t-43.5 -10
q-28 0 -44.5 14.5t-25.5 34t-11.5 39t-2.5 28.5q0 17 3 32t8 29q12 40 29 62t32.5 32t26.5 12t12 2q9 0 15 -4.5t6 -13.5q0 -5 -1 -8q0 -1 -14 -8t-30.5 -24t-30 -46t-13.5 -72q0 -26 10 -47t36 -23q28 3 50 18.5t38 37.5q-30 5 -49 30.5t-19 55.5q0 21 6.5 38t15.5 30
t19.5 20t18.5 7q12 0 23 -8t19.5 -22t13 -32.5t4.5 -39.5q0 -20 -4 -37q20 -9 72 11zM184 117q10 24 10 51q0 11 -1.5 24.5t-6 25.5t-12 20.5t-18.5 8.5q-6 0 -12 -7t-10.5 -17t-7 -21.5t-2.5 -21.5q0 -24 14.5 -44t38.5 -20q2 0 3.5 0.5t3.5 0.5z" />
    </font>
</defs>
</svg>
